<svg width="158" height="34" viewBox="0 0 158 34" fill="none" xmlns="http://www.w3.org/2000/svg">
<ellipse cx="7.00462" cy="16.4619" rx="7.00462" ry="7.09496" fill="#31D7C3"/>
<ellipse cx="20.3449" cy="25.231" rx="8.65739" ry="8.76905" fill="#B7B7B7"/>
<path d="M9.40509 4.60415C9.40509 2.06135 11.4664 0 14.0092 0V0V16.4619H9.40509V4.60415Z" fill="#31D7C3"/>
<path d="M5.18859 34C4.30071 34 3.58093 33.2802 3.58093 32.3923V32.3923C3.58093 30.6166 5.02048 29.177 6.79625 29.177H19.0462V34H5.18859Z" fill="#B7B7B7"/>
<path d="M14.0014 0H19.0529C20.1316 0 21.006 0.874436 21.006 1.95311V1.95311C21.006 3.03178 20.1316 3.90621 19.0529 3.90621H14.0014V0Z" fill="#31D7C3"/>
<path d="M14.0014 5.66667H19.0227C20.1181 5.66667 21.006 6.55463 21.006 7.65V7.65C21.006 8.74536 20.1181 9.63333 19.0227 9.63333H14.0014V5.66667Z" fill="#31D7C3"/>
<ellipse cx="32.0324" cy="25.231" rx="1.96759" ry="1.99297" fill="#B7B7B7"/>
<path d="M42.4137 29V10.5H53.8137V13.575H46.1137V18.425H52.6887V21.5H46.1137V29H42.4137ZM60.2779 29.35C57.2529 29.35 55.9279 27.275 55.9279 23.75V15.025H59.6029V23.3C59.6029 25.45 60.2029 26.2 61.5779 26.2C62.7279 26.2 63.4779 25.7 64.4279 24.45V15.025H68.0779V29H65.0779L64.8029 27H64.7279C63.5029 28.425 62.1779 29.35 60.2779 29.35ZM72.0209 29V15.025H74.9959L75.2959 16.875H75.3709C76.5709 15.675 78.0209 14.675 79.9209 14.675C82.9209 14.675 84.2459 16.775 84.2459 20.275V29H80.5709V20.75C80.5709 18.55 79.9459 17.825 78.5959 17.825C77.4459 17.825 76.7209 18.375 75.6959 19.375V29H72.0209ZM88.0365 29V15.025H91.7115V29H88.0365ZM89.8615 12.75C88.5865 12.75 87.7365 11.95 87.7365 10.725C87.7365 9.525 88.5865 8.75 89.8615 8.75C91.1365 8.75 92.0115 9.525 92.0115 10.725C92.0115 11.95 91.1365 12.75 89.8615 12.75ZM101.593 29V10.5H107.693C111.493 10.5 114.393 11.625 114.393 15.075C114.393 16.775 113.468 18.5 111.893 19.075V19.175C113.868 19.65 115.343 21.075 115.343 23.55C115.343 27.275 112.243 29 108.193 29H101.593ZM105.293 18.025H107.443C109.793 18.025 110.793 17.1 110.793 15.6C110.793 13.975 109.718 13.35 107.493 13.35H105.293V18.025ZM105.293 26.15H107.868C110.368 26.15 111.743 25.25 111.743 23.35C111.743 21.55 110.418 20.775 107.868 20.775H105.293V26.15ZM122.485 29.35C119.46 29.35 118.135 27.275 118.135 23.75V15.025H121.81V23.3C121.81 25.45 122.41 26.2 123.785 26.2C124.935 26.2 125.685 25.7 126.635 24.45V15.025H130.285V29H127.285L127.01 27H126.935C125.71 28.425 124.385 29.35 122.485 29.35ZM134.228 29V15.025H137.203L137.503 16.875H137.578C138.778 15.675 140.228 14.675 142.128 14.675C145.128 14.675 146.453 16.775 146.453 20.275V29H142.778V20.75C142.778 18.55 142.153 17.825 140.803 17.825C139.653 17.825 138.928 18.375 137.903 19.375V29H134.228ZM150.244 29V15.025H153.919V29H150.244ZM152.069 12.75C150.794 12.75 149.944 11.95 149.944 10.725C149.944 9.525 150.794 8.75 152.069 8.75C153.344 8.75 154.219 9.525 154.219 10.725C154.219 11.95 153.344 12.75 152.069 12.75Z" fill="white"/>
</svg>
