<svg width="158" height="34" viewBox="0 0 158 34" fill="none" xmlns="http://www.w3.org/2000/svg">
<ellipse cx="20.8431" cy="25.2309" rx="8.72363" ry="8.76905" fill="#B7B7B7"/>
<path d="M6.12963 34C5.24174 34 4.52197 33.2802 4.52197 32.3923V32.3923C4.52197 30.6166 5.96152 29.177 7.73729 29.177H20.1055V34H6.12963Z" fill="#B7B7B7"/>
<ellipse cx="7.05821" cy="16.4619" rx="7.05821" ry="7.09496" fill="#31D7C3"/>
<path d="M9.47705 4.63938C9.47705 2.07712 11.5542 0 14.1164 0V0V16.4619H9.47705V4.63938Z" fill="#31D7C3"/>
<path d="M14.1085 0H19.2136C20.2923 0 21.1667 0.874436 21.1667 1.95311V1.95311C21.1667 3.03178 20.2923 3.90621 19.2136 3.90621H14.1085V0Z" fill="#31D7C3"/>
<path d="M14.1085 5.66667H19.1834C20.2788 5.66667 21.1667 6.55464 21.1667 7.65001V7.65001C21.1667 8.74537 20.2788 9.63334 19.1834 9.63334H14.1085V5.66667Z" fill="#31D7C3"/>
<ellipse cx="32.0174" cy="25.2263" rx="1.98264" ry="1.99297" fill="#B7B7B7"/>
<path d="M41.5742 26V6.91016H54.1514V10.1797H45.5293V14.8203H53.334V18.0898H45.5293V26H41.5742ZM64.9619 19.9092V11.6826H68.8643V26H65.1201V23.416H64.9619C64.3027 25.0771 62.7734 26.1846 60.6113 26.1846C57.7373 26.1846 55.7861 24.1543 55.7861 20.8057V11.6826H59.6885V20.1201C59.6885 21.8076 60.6641 22.8887 62.1934 22.8887C63.6172 22.8887 64.9619 21.8604 64.9619 19.9092ZM75.7988 17.7207V26H71.8965V11.6826H75.6143V14.1875H75.7725C76.4316 12.5264 77.9609 11.498 80.0703 11.498C83.0498 11.498 85.0273 13.5283 85.001 16.877V26H81.125V17.5625C81.125 15.7959 80.1494 14.7412 78.541 14.7412C76.9062 14.7412 75.7988 15.8223 75.7988 17.7207ZM88.0332 26V11.6826H91.9355V26H88.0332ZM89.9844 9.81055C88.7979 9.81055 87.8486 8.91406 87.8486 7.83301C87.8486 6.72559 88.7979 5.8291 89.9844 5.8291C91.1445 5.8291 92.0938 6.72559 92.0938 7.83301C92.0938 8.91406 91.1445 9.81055 89.9844 9.81055ZM101.27 26V6.91016H108.863C113.082 6.91016 115.191 8.94043 115.191 11.8145C115.191 14.0557 113.741 15.4531 111.764 15.9014V16.0859C113.926 16.1914 115.956 17.9053 115.956 20.7266C115.956 23.7588 113.688 26 109.364 26H101.27ZM108.573 22.7305C110.867 22.7305 111.843 21.7812 111.843 20.3574C111.843 18.749 110.63 17.6152 108.679 17.6152H105.225V22.7305H108.573ZM108.283 14.8994C109.944 14.8994 111.184 13.9766 111.184 12.4473C111.184 11.0762 110.182 10.127 108.362 10.127H105.225V14.8994H108.283ZM127.558 19.9092V11.6826H131.46V26H127.716V23.416H127.558C126.898 25.0771 125.369 26.1846 123.207 26.1846C120.333 26.1846 118.382 24.1543 118.382 20.8057V11.6826H122.284V20.1201C122.284 21.8076 123.26 22.8887 124.789 22.8887C126.213 22.8887 127.558 21.8604 127.558 19.9092ZM138.395 17.7207V26H134.492V11.6826H138.21V14.1875H138.368C139.027 12.5264 140.557 11.498 142.666 11.498C145.646 11.498 147.623 13.5283 147.597 16.877V26H143.721V17.5625C143.721 15.7959 142.745 14.7412 141.137 14.7412C139.502 14.7412 138.395 15.8223 138.395 17.7207ZM150.629 26V11.6826H154.531V26H150.629ZM152.58 9.81055C151.394 9.81055 150.444 8.91406 150.444 7.83301C150.444 6.72559 151.394 5.8291 152.58 5.8291C153.74 5.8291 154.689 6.72559 154.689 7.83301C154.689 8.91406 153.74 9.81055 152.58 9.81055Z" fill="black"/>
</svg>
