<?xml version="1.0" standalone="no"?>
<!DOCTYPE svg PUBLIC "-//W3C//DTD SVG 20010904//EN"
 "http://www.w3.org/TR/2001/REC-SVG-20010904/DTD/svg10.dtd">
<svg version="1.0" xmlns="http://www.w3.org/2000/svg"
 width="3840.000000pt" height="1440.000000pt" viewBox="0 0 3840.000000 1440.000000"
 preserveAspectRatio="xMidYMid meet">

<g transform="translate(0.000000,1440.000000) scale(0.100000,-0.100000)"
fill="#000000" stroke="none">
<path d="M1916 13573 c-10 -54 -20 -110 -23 -124 -7 -38 28 -45 74 -13 82 55
163 7 163 -97 0 -33 -7 -48 -34 -75 -23 -23 -43 -34 -64 -34 -36 0 -78 31 -86
65 -5 20 -13 25 -36 25 -37 0 -40 -23 -7 -71 32 -48 81 -71 140 -66 88 8 147
74 147 166 0 113 -92 187 -191 152 -18 -6 -34 -9 -36 -7 -3 3 0 30 7 60 l11
56 95 0 94 0 0 30 0 30 -118 0 -119 0 -17 -97z"/>
<path d="M2276 13573 c-10 -54 -20 -110 -23 -124 -7 -38 28 -45 74 -13 82 55
163 7 163 -97 0 -33 -7 -48 -34 -75 -23 -23 -43 -34 -64 -34 -36 0 -78 31 -86
65 -5 20 -13 25 -36 25 -37 0 -40 -23 -7 -71 32 -48 81 -71 140 -66 88 8 147
74 147 166 0 113 -92 187 -191 152 -18 -6 -34 -9 -36 -7 -3 3 0 30 7 60 l11
56 95 0 94 0 0 30 0 30 -118 0 -119 0 -17 -97z"/>
<path d="M20756 13573 c-10 -54 -20 -110 -23 -124 -7 -38 28 -45 74 -13 82 55
163 7 163 -97 0 -33 -7 -48 -34 -75 -23 -23 -43 -34 -64 -34 -36 0 -78 31 -86
65 -5 20 -13 25 -36 25 -37 0 -40 -23 -7 -71 32 -48 81 -71 140 -66 88 8 147
74 147 166 0 113 -92 187 -191 152 -18 -6 -34 -9 -36 -7 -3 3 0 30 7 60 l11
56 95 0 94 0 0 30 0 30 -118 0 -119 0 -17 -97z"/>
<path d="M21116 13573 c-10 -54 -20 -110 -23 -124 -7 -38 28 -45 74 -13 82 55
163 7 163 -97 0 -33 -7 -48 -34 -75 -23 -23 -43 -34 -64 -34 -36 0 -78 31 -86
65 -5 20 -13 25 -36 25 -37 0 -40 -23 -7 -71 32 -48 81 -71 140 -66 88 8 147
74 147 166 0 113 -92 187 -191 152 -18 -6 -34 -9 -36 -7 -3 3 0 30 7 60 l11
56 95 0 94 0 0 30 0 30 -118 0 -119 0 -17 -97z"/>
<path d="M14594 13485 c9 -13 16 -27 16 -30 0 -3 -2653 -5 -5895 -5 l-5895 0
0 -25 0 -25 105 0 105 0 0 -895 0 -895 -105 0 -105 0 0 -25 0 -25 105 0 105 0
0 -900 0 -900 -105 0 -105 0 0 -25 0 -25 105 0 105 0 0 -900 0 -900 -105 0
-105 0 0 -25 0 -25 105 0 105 0 0 -900 0 -900 -105 0 -105 0 0 -25 0 -25 105
0 105 0 0 -900 0 -900 -105 0 -105 0 0 -25 0 -25 105 0 105 0 0 -845 0 -845
25 0 25 0 0 105 0 105 1710 0 1710 0 0 -105 0 -105 25 0 25 0 0 105 0 105
1715 0 1715 0 0 -105 0 -105 25 0 25 0 0 105 0 105 1710 0 1710 0 0 -105 0
-105 25 0 25 0 0 105 0 105 1710 0 1710 0 0 -105 0 -105 25 0 25 0 0 105 0
105 950 0 950 0 0 5385 0 5385 -2016 0 -2016 0 16 25 c22 33 21 35 -13 35 -21
0 -36 -8 -51 -30 -18 -25 -28 -30 -64 -30 -36 0 -44 4 -59 30 -15 24 -25 30
-54 30 -35 0 -35 0 -19 -25z m79 -117 l20 -26 -55 -79 c-76 -109 -74 -103 -36
-103 30 0 37 7 79 71 l46 70 45 -72 46 -73 -28 -28 c-16 -16 -31 -36 -34 -46
-6 -18 28 -15 -1396 -137 -151 -13 -792 -69 -1425 -125 l-1150 -100 -19 22
c-34 42 -69 58 -123 58 l-53 0 0 240 0 240 -30 0 -30 0 0 -245 c0 -241 0 -245
21 -245 19 0 18 -3 -11 -31 -17 -17 -34 -45 -37 -60 -3 -16 -9 -32 -14 -35 -5
-3 -640 -209 -1411 -458 l-1403 -453 -35 23 c-24 17 -49 24 -82 24 l-48 0 0
135 c0 157 -9 187 -65 205 -42 14 -85 6 -120 -22 l-26 -20 -22 20 c-44 40
-113 40 -155 1 l-22 -20 0 21 c0 16 -6 20 -30 20 l-30 0 0 -175 0 -175 29 0
29 0 3 131 c4 129 4 131 32 155 36 31 81 32 101 2 13 -18 16 -51 16 -155 l0
-133 30 0 30 0 0 130 c0 126 1 132 25 155 28 29 70 32 97 8 16 -14 18 -33 18
-155 0 -125 2 -138 18 -138 15 -1 15 -2 -2 -15 -35 -27 -56 -69 -56 -115 -1
-43 -3 -47 -58 -88 -31 -24 -556 -427 -1166 -895 -610 -469 -1114 -850 -1120
-848 -6 3 -33 7 -61 9 -60 5 -106 -17 -135 -63 -25 -40 -26 -116 -3 -156 20
-34 91 115 -687 -1459 -555 -1121 -557 -1125 -588 -1128 l-32 -3 0 135 c0 80
-5 145 -11 160 -26 57 -121 70 -181 26 l-28 -21 0 21 c0 16 -7 20 -30 20 l-30
0 0 -175 0 -175 29 0 29 0 4 131 c3 129 3 131 31 155 36 31 87 32 113 3 16
-18 19 -40 22 -155 3 -117 6 -134 20 -134 13 0 11 -5 -10 -23 -36 -31 -48 -58
-48 -114 0 -89 55 -143 145 -143 57 0 100 21 125 63 27 43 26 117 -1 165 l-21
37 622 1260 c343 693 627 1266 633 1273 5 6 24 12 41 12 69 0 126 66 126 147
l0 52 1161 891 c1087 835 1163 892 1186 881 38 -17 114 -13 147 8 37 25 66 69
66 103 0 24 6 29 48 41 26 8 472 152 992 320 520 168 1134 367 1364 441 340
110 421 133 430 122 25 -30 62 -46 110 -46 60 0 105 26 132 75 13 25 27 36 49
40 16 2 424 38 905 80 481 41 1003 86 1160 100 1168 100 1800 155 1831 160 31
4 38 1 49 -20 21 -40 71 -65 126 -65 87 0 144 58 144 145 0 79 -57 145 -127
145 -28 0 -38 8 -86 78 -29 42 -57 82 -60 88 -4 7 3 23 14 38 l20 26 2010 0
2009 0 0 -5335 0 -5335 -7870 0 -7870 0 0 5335 0 5335 5786 -2 5787 -3 20 -27z"/>
<path d="M4764 10179 c-40 -12 -64 -38 -71 -82 -5 -31 -1 -41 24 -65 17 -18
52 -36 88 -46 103 -30 126 -55 85 -96 -27 -27 -89 -27 -124 1 -14 11 -26 27
-26 35 0 15 -27 19 -47 6 -20 -13 17 -74 57 -94 96 -49 214 6 214 99 0 48 -27
69 -124 101 -73 23 -85 30 -88 51 -5 32 21 51 69 51 28 0 43 -7 61 -27 15 -19
31 -27 46 -25 26 4 28 19 6 51 -31 44 -101 60 -170 40z"/>
<path d="M14970 6345 c0 -3 36 -59 80 -125 l80 -119 0 -91 c0 -89 0 -90 25
-90 25 0 25 1 25 88 l0 88 85 124 c47 68 85 125 85 127 0 2 -14 3 -30 3 -27 0
-37 -10 -96 -101 l-67 -101 -22 39 c-12 22 -41 67 -64 101 -35 53 -46 62 -71
62 -17 0 -30 -2 -30 -5z"/>
<path d="M15495 6337 c-42 -19 -92 -79 -104 -124 -27 -97 -3 -192 62 -250 65
-57 188 -60 255 -6 60 49 77 87 77 173 0 89 -21 138 -78 184 -34 27 -47 31
-110 33 -45 2 -83 -2 -102 -10z m163 -47 c94 -58 94 -252 0 -310 -45 -27 -106
-26 -149 3 -47 31 -69 79 -69 152 0 73 22 121 69 152 43 29 104 30 149 3z"/>
<path d="M15860 6135 l0 -215 135 0 135 0 0 25 0 25 -105 0 -105 0 0 190 0
190 -30 0 -30 0 0 -215z"/>
<path d="M16295 6336 c-135 -59 -154 -283 -32 -380 31 -25 49 -31 101 -34 82
-5 126 10 170 58 96 107 63 305 -61 356 -41 18 -139 17 -178 0z m166 -49 c47
-31 69 -79 69 -152 0 -73 -22 -121 -69 -152 -69 -46 -164 -19 -204 57 -23 45
-19 165 7 205 42 64 134 84 197 42z"/>
<path d="M17012 6330 c-58 -35 -69 -105 -24 -150 l29 -28 -24 -11 c-32 -15
-56 -75 -48 -118 3 -19 19 -48 34 -65 23 -26 37 -32 84 -36 67 -5 110 10 136
47 38 55 31 134 -16 171 l-26 20 21 21 c95 88 -51 219 -166 149z m103 -32 c45
-20 47 -82 4 -107 -54 -30 -124 22 -100 75 9 21 39 41 63 43 4 1 19 -4 33 -11z
m33 -194 c50 -56 12 -144 -63 -144 -98 0 -118 138 -25 173 26 10 64 -3 88 -29z"/>
<path d="M13804 6250 c-17 -11 -37 -31 -44 -45 l-13 -25 -259 0 -258 0 0 -50
0 -50 254 0 254 0 20 -32 c28 -45 71 -68 127 -68 56 0 99 23 127 68 l20 32
249 0 249 0 0 50 0 50 -253 0 -254 0 -13 25 c-33 62 -142 86 -206 45z"/>
<path d="M16634 6213 c3 -10 30 -80 59 -155 48 -127 54 -138 77 -138 23 0 29
12 80 146 30 81 57 151 59 156 2 5 -10 8 -25 6 -26 -3 -32 -11 -65 -103 -21
-55 -40 -109 -43 -120 -4 -14 -16 7 -40 75 -55 154 -53 150 -82 150 -21 0 -25
-4 -20 -17z"/>
<path d="M14970 5495 c0 -3 36 -59 80 -125 l80 -119 0 -91 c0 -89 0 -90 25
-90 25 0 25 1 25 88 l0 88 85 124 c47 68 85 125 85 127 0 2 -14 3 -30 3 -27 0
-37 -10 -96 -101 l-67 -101 -22 39 c-12 22 -41 67 -64 101 -35 53 -46 62 -71
62 -17 0 -30 -2 -30 -5z"/>
<path d="M15495 5487 c-42 -19 -92 -79 -104 -124 -27 -97 -3 -192 62 -250 65
-57 188 -60 255 -6 60 49 77 87 77 173 0 89 -21 138 -78 184 -34 27 -47 31
-110 33 -45 2 -83 -2 -102 -10z m163 -47 c99 -61 94 -262 -8 -315 -43 -22
-101 -19 -141 8 -47 31 -69 79 -69 152 0 73 22 121 69 152 43 29 104 30 149 3z"/>
<path d="M15860 5285 l0 -215 135 0 135 0 0 25 0 25 -105 0 -105 0 0 190 0
190 -30 0 -30 0 0 -215z"/>
<path d="M16295 5486 c-135 -59 -154 -283 -32 -380 31 -25 49 -31 101 -34 82
-5 126 10 170 58 96 107 63 305 -61 356 -41 18 -139 17 -178 0z m166 -49 c47
-31 69 -79 69 -152 0 -73 -22 -121 -69 -152 -69 -46 -164 -19 -204 57 -23 45
-19 165 7 205 42 64 134 84 197 42z"/>
<path d="M16950 5475 l0 -25 100 0 c55 0 100 -3 100 -6 0 -3 -11 -20 -24 -37
-53 -69 -116 -238 -116 -309 0 -23 4 -28 25 -28 20 0 25 6 30 38 19 120 52
201 120 298 25 36 45 71 45 79 0 12 -24 15 -140 15 l-140 0 0 -25z"/>
<path d="M16634 5363 c3 -10 30 -80 59 -155 48 -127 54 -138 77 -138 23 0 29
12 80 146 30 81 57 151 59 156 2 5 -10 8 -25 6 -26 -3 -32 -11 -65 -103 -21
-55 -40 -109 -43 -120 -4 -14 -16 7 -40 75 -55 154 -53 150 -82 150 -21 0 -25
-4 -20 -17z"/>
<path d="M6972 5158 c-71 -13 -136 -73 -147 -134 -15 -95 40 -150 191 -190
111 -29 168 -55 178 -79 35 -91 -47 -157 -175 -142 -70 9 -106 33 -132 90 -20
45 -24 48 -51 43 -40 -8 -41 -10 -27 -58 29 -96 139 -156 266 -146 98 8 169
55 194 127 16 48 14 76 -9 121 -27 52 -82 83 -204 114 -138 34 -169 62 -151
133 7 30 73 62 127 63 67 0 114 -26 139 -77 20 -42 24 -45 52 -39 17 3 33 8
35 11 3 2 -3 25 -13 51 -20 53 -78 101 -134 109 -72 11 -87 12 -139 3z"/>
<path d="M8567 5154 c-4 -4 -7 -142 -7 -306 l0 -298 40 0 40 0 -2 303 -3 302
-30 3 c-17 2 -34 0 -38 -4z"/>
<path d="M8757 5154 c-4 -4 -7 -142 -7 -306 l0 -298 40 0 40 0 -2 303 -3 302
-30 3 c-17 2 -34 0 -38 -4z"/>
<path d="M7536 4990 c-16 -5 -42 -21 -57 -36 l-29 -28 0 32 c0 29 -3 32 -30
32 l-30 0 0 -220 0 -220 35 0 35 0 0 145 c0 157 10 204 50 225 36 19 90 15
114 -9 19 -20 21 -34 24 -191 l3 -170 35 0 34 0 0 144 c0 78 5 157 11 174 23
66 113 88 155 38 23 -26 24 -33 24 -192 l0 -164 36 0 35 0 -3 184 c-3 210 -10
229 -85 255 -50 18 -105 5 -153 -35 l-30 -26 -21 26 c-19 24 -75 47 -109 45
-8 0 -28 -5 -44 -9z"/>
<path d="M8205 4991 c-53 -14 -94 -40 -110 -71 -24 -46 -20 -60 18 -60 25 1
36 8 52 33 49 77 194 53 198 -33 l2 -35 -75 -13 c-170 -29 -212 -53 -226 -130
-5 -26 -2 -46 12 -72 40 -73 140 -91 238 -41 l57 29 9 -24 c8 -19 17 -24 46
-24 31 0 35 3 28 18 -4 9 -10 91 -14 182 -5 178 -11 200 -60 225 -35 18 -133
27 -175 16z m165 -251 c0 -48 -26 -98 -62 -120 -45 -27 -121 -27 -148 0 -25
25 -26 72 -2 93 14 13 104 37 205 56 4 0 7 -13 7 -29z"/>
<path d="M9047 4985 c-88 -31 -131 -103 -132 -220 0 -70 4 -86 27 -127 35 -58
82 -88 151 -95 90 -9 166 28 204 100 17 33 17 33 -23 41 -27 6 -34 3 -55 -28
-27 -40 -56 -56 -102 -56 -64 0 -127 64 -127 130 0 19 6 20 160 20 l160 0 0
48 c-1 142 -131 235 -263 187z m130 -65 c34 -20 46 -38 57 -82 l6 -28 -125 0
-125 0 6 28 c22 88 107 127 181 82z"/>
<path d="M9544 4990 c-12 -4 -31 -21 -42 -37 l-21 -28 -1 33 c0 29 -3 32 -30
32 l-30 0 0 -220 0 -220 35 0 35 0 0 146 c0 197 20 238 110 221 25 -5 30 -2
39 25 6 17 11 32 11 34 0 3 -72 24 -80 23 -3 0 -14 -4 -26 -9z"/>
<path d="M5815 4448 c-536 -269 -578 -291 -560 -305 28 -20 1136 -575 1141
-571 2 2 4 78 5 168 1 91 4 195 7 232 l4 68 1807 0 c993 0 1845 0 1894 0 l87
0 0 115 0 115 -1897 2 -1898 3 -5 231 -5 232 -580 -290z"/>
<path d="M14970 4645 c0 -3 36 -59 80 -125 l80 -119 0 -91 c0 -89 0 -90 25
-90 25 0 25 1 25 88 l0 88 85 124 c47 68 85 125 85 127 0 2 -14 3 -30 3 -27 0
-37 -10 -96 -101 l-67 -101 -22 39 c-12 22 -41 67 -64 101 -35 53 -46 62 -71
62 -17 0 -30 -2 -30 -5z"/>
<path d="M15495 4637 c-42 -19 -92 -79 -104 -124 -27 -97 -3 -192 62 -250 65
-57 188 -60 255 -6 60 49 77 87 77 173 0 89 -21 138 -78 184 -34 27 -47 31
-110 33 -45 2 -83 -2 -102 -10z m163 -47 c99 -61 94 -262 -8 -315 -43 -22
-101 -19 -141 8 -47 31 -69 79 -69 152 0 73 22 121 69 152 43 29 104 30 149 3z"/>
<path d="M15860 4435 l0 -215 135 0 135 0 0 25 0 25 -105 0 -105 0 0 190 0
190 -30 0 -30 0 0 -215z"/>
<path d="M16295 4636 c-135 -59 -154 -283 -32 -380 31 -25 49 -31 101 -34 82
-5 126 10 170 58 96 107 63 305 -61 356 -41 18 -139 17 -178 0z m166 -49 c47
-31 69 -79 69 -152 0 -73 -22 -121 -69 -152 -69 -46 -164 -19 -204 57 -23 45
-19 165 7 205 42 64 134 84 197 42z"/>
<path d="M17030 4633 c-54 -28 -81 -88 -86 -186 -8 -150 42 -227 145 -227 87
1 131 48 131 143 0 51 -4 61 -33 93 -45 50 -105 57 -159 20 -21 -14 -38 -24
-38 -21 0 2 5 26 11 53 17 83 81 122 132 82 15 -12 27 -28 27 -36 0 -8 10 -14
25 -14 35 0 33 38 -4 74 -38 37 -102 45 -151 19z m118 -209 c49 -55 13 -163
-56 -164 -34 0 -60 17 -77 50 -18 35 -19 67 -1 99 30 54 92 61 134 15z"/>
<path d="M17553 4635 c-36 -15 -61 -49 -65 -85 -3 -21 1 -25 22 -25 17 0 26 6
28 20 9 48 57 72 109 54 41 -13 57 -41 49 -85 -5 -26 -28 -53 -97 -116 -80
-74 -129 -137 -129 -168 0 -6 50 -10 140 -10 l140 0 0 25 0 25 -100 0 c-55 0
-100 4 -100 9 0 5 33 37 74 72 41 34 85 76 97 92 31 42 37 116 13 152 -33 51
-115 69 -181 40z"/>
<path d="M18065 4641 c-55 -23 -84 -93 -85 -205 0 -96 15 -149 53 -187 24 -25
36 -29 82 -29 100 0 139 60 140 215 0 104 -24 168 -74 198 -31 18 -82 21 -116
8z m85 -46 c40 -21 53 -70 49 -183 -5 -122 -35 -165 -105 -148 -42 11 -59 59
-59 171 0 120 19 161 83 174 2 1 16 -6 32 -14z"/>
<path d="M16634 4513 c3 -10 30 -80 59 -155 48 -127 54 -138 77 -138 23 0 29
12 80 146 30 81 57 151 59 156 2 5 -10 8 -25 6 -26 -3 -32 -11 -65 -103 -21
-55 -40 -109 -43 -120 -4 -14 -16 7 -40 75 -55 154 -53 150 -82 150 -21 0 -25
-4 -20 -17z"/>
<path d="M17270 4375 c0 -25 1 -25 80 -25 79 0 80 0 80 25 0 25 -1 25 -80 25
-79 0 -80 0 -80 -25z"/>
<path d="M17840 4250 c0 -27 3 -30 30 -30 27 0 30 3 30 30 0 27 -3 30 -30 30
-27 0 -30 -3 -30 -30z"/>
<path d="M14970 3795 c0 -3 36 -59 80 -125 l80 -119 0 -91 c0 -89 0 -90 25
-90 25 0 25 1 25 88 l0 88 85 124 c47 68 85 125 85 127 0 2 -14 3 -30 3 -27 0
-37 -10 -96 -101 l-67 -101 -22 39 c-12 22 -41 67 -64 101 -35 53 -46 62 -71
62 -17 0 -30 -2 -30 -5z"/>
<path d="M15495 3787 c-42 -19 -92 -79 -104 -124 -27 -97 -3 -192 62 -250 65
-57 188 -60 255 -6 60 49 77 87 77 173 0 89 -21 138 -78 184 -34 27 -47 31
-110 33 -45 2 -83 -2 -102 -10z m163 -47 c99 -61 94 -262 -8 -315 -43 -22
-101 -19 -141 8 -47 31 -69 79 -69 152 0 73 22 121 69 152 43 29 104 30 149 3z"/>
<path d="M15860 3585 l0 -215 135 0 135 0 0 25 0 25 -105 0 -105 0 0 190 0
190 -30 0 -30 0 0 -215z"/>
<path d="M16295 3786 c-135 -59 -154 -283 -32 -380 31 -25 49 -31 101 -34 82
-5 126 10 170 58 96 107 63 305 -61 356 -41 18 -139 17 -178 0z m166 -49 c47
-31 69 -79 69 -152 0 -73 -22 -121 -69 -152 -69 -46 -164 -19 -204 57 -23 45
-19 165 7 205 42 64 134 84 197 42z"/>
<path d="M16974 3690 l-20 -109 20 -3 c12 -2 33 5 49 16 69 50 147 7 147 -80
0 -104 -122 -145 -160 -54 -9 21 -19 30 -36 30 -37 0 -32 -44 10 -86 31 -31
39 -34 95 -34 53 0 64 4 96 31 116 103 23 295 -122 251 l-35 -11 7 47 c4 26 9
50 12 55 2 4 42 7 89 7 83 0 84 0 84 25 l0 25 -108 0 -109 0 -19 -110z"/>
<path d="M17480 3775 l0 -25 106 0 105 0 -25 -32 c-40 -53 -86 -154 -107 -235
-26 -105 -25 -113 11 -113 27 0 30 3 30 33 0 77 52 208 120 305 64 92 64 92
-100 92 l-140 0 0 -25z"/>
<path d="M18053 3780 c-54 -32 -67 -71 -68 -190 0 -165 35 -220 141 -220 39 0
51 5 79 33 83 83 67 334 -25 382 -40 21 -89 19 -127 -5z m114 -42 c24 -19 35
-84 32 -180 -4 -86 -7 -99 -28 -122 -40 -42 -91 -32 -121 24 -20 35 -19 205 0
245 25 49 78 64 117 33z"/>
<path d="M16634 3663 c3 -10 30 -80 59 -155 48 -127 54 -138 77 -138 23 0 29
12 80 146 30 81 57 151 59 156 2 5 -10 8 -25 6 -26 -3 -32 -11 -65 -103 -21
-55 -40 -109 -43 -120 -4 -14 -16 7 -40 75 -55 154 -53 150 -82 150 -21 0 -25
-4 -20 -17z"/>
<path d="M17270 3525 c0 -25 1 -25 80 -25 79 0 80 0 80 25 0 25 -1 25 -80 25
-79 0 -80 0 -80 -25z"/>
<path d="M17840 3400 c0 -27 3 -30 30 -30 27 0 30 3 30 30 0 27 -3 30 -30 30
-27 0 -30 -3 -30 -30z"/>
<path d="M36664 13485 c9 -13 16 -27 16 -30 0 -3 -3379 -5 -7510 -5 l-7510 0
0 -25 0 -25 105 0 105 0 0 -895 0 -895 -105 0 -105 0 0 -25 0 -25 105 0 105 0
0 -900 0 -900 -105 0 -105 0 0 -25 0 -25 105 0 105 0 0 -900 0 -900 -105 0
-105 0 0 -25 0 -25 105 0 105 0 0 -900 0 -900 -105 0 -105 0 0 -25 0 -25 105
0 105 0 0 -900 0 -900 -105 0 -105 0 0 -25 0 -25 105 0 105 0 0 -740 0 -740
470 0 470 0 0 -105 0 -105 25 0 25 0 0 105 0 105 1370 0 1370 0 0 -105 0 -105
25 0 25 0 0 105 0 105 1375 0 1375 0 0 -105 0 -105 25 0 25 0 0 105 0 105
1370 0 1370 0 0 -105 0 -105 25 0 25 0 0 105 0 105 1370 0 1370 0 0 -105 0
-105 25 0 25 0 0 105 0 105 1370 0 1370 0 0 -105 0 -105 25 0 25 0 0 105 0
105 445 0 445 0 0 5385 0 5385 -401 0 -401 0 16 25 c22 33 21 35 -13 35 -21 0
-36 -8 -51 -30 -18 -25 -28 -30 -64 -30 -36 0 -44 4 -59 30 -15 24 -25 30 -54
30 -35 0 -35 0 -19 -25z m79 -117 l20 -26 -55 -79 c-76 -109 -74 -103 -36
-103 29 0 38 7 76 65 23 36 45 65 50 65 4 0 26 -30 49 -67 l41 -67 -21 -21
c-12 -11 -29 -30 -37 -43 -16 -25 65 -19 -1105 -86 -506 -30 -2869 -167 -3535
-206 -371 -22 -850 -49 -1064 -62 l-388 -22 -20 24 c-34 42 -70 60 -120 60
l-48 0 0 240 0 240 -30 0 -30 0 0 -245 c0 -216 2 -245 16 -245 11 0 6 -9 -16
-31 -17 -17 -34 -45 -37 -61 -3 -16 -13 -33 -22 -37 -13 -7 -1241 -400 -2521
-808 -96 -30 -206 -66 -244 -78 l-68 -23 -35 24 c-26 17 -50 24 -84 24 l-49 0
0 135 c0 157 -9 187 -65 205 -42 14 -85 6 -120 -22 l-26 -20 -22 20 c-44 40
-113 40 -155 1 l-22 -20 0 21 c0 16 -6 20 -30 20 l-30 0 0 -175 0 -175 29 0
29 0 3 131 c4 129 4 131 32 155 36 31 81 32 101 2 13 -18 16 -51 16 -155 l0
-133 30 0 30 0 0 130 c0 126 1 132 25 155 28 29 70 32 97 8 16 -14 18 -33 18
-155 0 -119 2 -138 16 -138 11 0 6 -9 -15 -31 -30 -29 -37 -46 -43 -98 -3 -21
-216 -143 -1642 -937 -1536 -856 -1640 -912 -1660 -899 -30 22 -115 19 -150
-4 -65 -43 -87 -138 -47 -205 l19 -31 -68 -160 c-72 -171 -299 -714 -411 -985
-37 -91 -184 -444 -327 -785 -245 -588 -260 -620 -285 -623 l-27 -3 0 135 c0
80 -5 145 -11 160 -26 57 -121 70 -181 26 l-28 -21 0 21 c0 16 -7 20 -30 20
l-30 0 0 -175 0 -175 29 0 29 0 4 131 c3 129 3 131 31 155 36 31 87 32 113 3
16 -18 19 -40 22 -155 3 -117 6 -134 20 -134 15 -1 15 -3 -2 -15 -37 -28 -56
-68 -56 -120 0 -88 57 -145 145 -145 88 0 145 57 145 145 0 37 -7 60 -25 87
l-24 36 128 309 c187 448 361 867 466 1118 51 121 172 411 269 645 97 234 181
435 186 448 7 16 18 22 42 22 66 0 120 56 128 133 l5 47 1630 909 1630 908 31
-18 c38 -23 113 -25 153 -5 33 18 62 59 70 101 8 37 -154 -18 1531 520 l1315
421 39 -28 c74 -53 180 -31 222 47 14 26 25 35 44 35 14 0 138 7 275 15 138 8
563 33 945 55 382 22 731 42 775 45 96 6 4035 235 4051 235 6 0 17 -11 24 -25
21 -40 71 -65 126 -65 87 0 144 58 144 145 0 79 -57 145 -127 145 -28 0 -38 8
-86 78 -29 42 -57 82 -60 88 -4 7 3 23 14 38 l20 26 395 0 394 0 0 -5335 0
-5335 -7870 0 -7870 0 0 5335 0 5335 7401 -2 7402 -3 20 -27z"/>
<path d="M23714 10179 c-40 -12 -64 -38 -71 -82 -5 -31 -1 -41 24 -65 17 -18
52 -36 88 -46 103 -30 126 -55 85 -96 -27 -27 -89 -27 -124 1 -14 11 -26 27
-26 35 0 15 -27 19 -47 6 -20 -13 17 -74 57 -94 96 -49 214 6 214 99 0 48 -27
69 -124 101 -73 23 -85 30 -88 51 -5 32 21 51 69 51 28 0 43 -7 61 -27 15 -19
31 -27 46 -25 26 4 28 19 6 51 -31 44 -101 60 -170 40z"/>
<path d="M33810 6345 c0 -3 36 -59 80 -125 l80 -119 0 -91 c0 -89 0 -90 25
-90 25 0 25 1 25 88 l0 88 85 124 c47 68 85 125 85 127 0 2 -14 3 -30 3 -27 0
-37 -10 -96 -101 l-67 -101 -22 39 c-12 22 -41 67 -64 101 -35 53 -46 62 -71
62 -17 0 -30 -2 -30 -5z"/>
<path d="M34335 6337 c-42 -19 -92 -79 -104 -124 -27 -97 -3 -192 62 -250 65
-57 188 -60 255 -6 60 49 77 87 77 173 0 89 -21 138 -78 184 -34 27 -47 31
-110 33 -45 2 -83 -2 -102 -10z m163 -47 c42 -26 72 -90 72 -155 0 -103 -61
-175 -146 -175 -86 0 -144 70 -144 175 0 73 22 121 69 152 43 29 104 30 149 3z"/>
<path d="M34700 6135 l0 -215 135 0 135 0 0 25 0 25 -105 0 -105 0 0 190 0
190 -30 0 -30 0 0 -215z"/>
<path d="M35135 6336 c-135 -59 -154 -283 -32 -380 31 -25 49 -31 101 -34 82
-5 126 10 170 58 96 107 63 305 -61 356 -41 18 -139 17 -178 0z m166 -49 c47
-31 69 -79 69 -152 0 -73 -22 -121 -69 -152 -69 -46 -164 -19 -204 57 -23 45
-19 165 7 205 42 64 134 84 197 42z"/>
<path d="M35852 6330 c-58 -35 -69 -105 -24 -150 l29 -28 -24 -11 c-32 -15
-56 -75 -48 -118 3 -19 19 -48 34 -65 23 -26 37 -32 84 -36 67 -5 110 10 136
47 38 55 31 134 -16 171 l-26 20 21 21 c95 88 -51 219 -166 149z m103 -32 c45
-20 47 -82 4 -107 -54 -30 -124 22 -100 75 9 21 39 41 63 43 4 1 19 -4 33 -11z
m33 -194 c50 -56 12 -144 -63 -144 -98 0 -118 138 -25 173 26 10 64 -3 88 -29z"/>
<path d="M32644 6250 c-17 -11 -37 -31 -44 -45 l-13 -25 -259 0 -258 0 0 -50
0 -50 254 0 254 0 20 -32 c28 -45 71 -68 127 -68 56 0 99 23 127 68 l20 32
249 0 249 0 0 50 0 50 -253 0 -254 0 -13 25 c-33 62 -142 86 -206 45z"/>
<path d="M35474 6213 c3 -10 30 -80 59 -155 48 -127 54 -138 77 -138 23 0 29
12 80 146 30 81 57 151 59 156 2 5 -10 8 -25 6 -26 -3 -32 -11 -65 -103 -21
-55 -40 -109 -43 -120 -4 -14 -16 7 -40 75 -55 154 -53 150 -82 150 -21 0 -25
-4 -20 -17z"/>
<path d="M33810 5495 c0 -3 36 -59 80 -125 l80 -119 0 -91 c0 -89 0 -90 25
-90 25 0 25 1 25 88 l0 88 85 124 c47 68 85 125 85 127 0 2 -14 3 -30 3 -27 0
-37 -10 -96 -101 l-67 -101 -22 39 c-12 22 -41 67 -64 101 -35 53 -46 62 -71
62 -17 0 -30 -2 -30 -5z"/>
<path d="M34335 5487 c-42 -19 -92 -79 -104 -124 -27 -97 -3 -192 62 -250 65
-57 188 -60 255 -6 60 49 77 87 77 173 0 89 -21 138 -78 184 -34 27 -47 31
-110 33 -45 2 -83 -2 -102 -10z m163 -47 c99 -61 94 -262 -8 -315 -43 -22
-101 -19 -141 8 -47 31 -69 79 -69 152 0 73 22 121 69 152 43 29 104 30 149 3z"/>
<path d="M34700 5285 l0 -215 135 0 135 0 0 25 0 25 -105 0 -105 0 0 190 0
190 -30 0 -30 0 0 -215z"/>
<path d="M35135 5486 c-135 -59 -154 -283 -32 -380 31 -25 49 -31 101 -34 82
-5 126 10 170 58 96 107 63 305 -61 356 -41 18 -139 17 -178 0z m166 -49 c47
-31 69 -79 69 -152 0 -73 -22 -121 -69 -152 -69 -46 -164 -19 -204 57 -23 45
-19 165 7 205 42 64 134 84 197 42z"/>
<path d="M35790 5475 l0 -25 100 0 c55 0 100 -3 100 -6 0 -3 -11 -20 -24 -37
-53 -69 -116 -238 -116 -309 0 -23 4 -28 25 -28 20 0 25 6 30 38 19 120 52
201 120 298 25 36 45 71 45 79 0 12 -24 15 -140 15 l-140 0 0 -25z"/>
<path d="M35474 5363 c3 -10 30 -80 59 -155 48 -127 54 -138 77 -138 23 0 29
12 80 146 30 81 57 151 59 156 2 5 -10 8 -25 6 -26 -3 -32 -11 -65 -103 -21
-55 -40 -109 -43 -120 -4 -14 -16 7 -40 75 -55 154 -53 150 -82 150 -21 0 -25
-4 -20 -17z"/>
<path d="M25850 4835 l0 -305 40 0 40 0 0 140 0 140 140 0 140 0 0 35 0 35
-140 0 -140 0 0 95 0 95 165 0 165 0 0 35 0 35 -205 0 -205 0 0 -305z"/>
<path d="M27303 5099 c-31 -19 -33 -25 -33 -75 0 -51 -1 -54 -25 -54 -34 0
-37 -47 -2 -52 22 -3 22 -6 27 -168 3 -91 9 -173 14 -183 13 -27 39 -37 97
-37 48 0 51 1 45 23 -3 12 -6 27 -6 34 0 6 -8 9 -19 6 -11 -3 -28 4 -40 16
-20 20 -21 30 -19 164 l3 142 38 3 c32 3 37 7 37 28 0 21 -4 24 -40 24 l-39 0
-3 75 -3 74 -32 -20z"/>
<path d="M26447 4966 c-46 -17 -64 -32 -83 -69 -20 -38 -12 -57 25 -57 21 0
32 6 36 20 23 73 172 83 204 13 16 -34 14 -60 -5 -67 -9 -4 -57 -13 -106 -21
-107 -17 -147 -38 -172 -88 -64 -131 104 -225 251 -141 23 13 44 24 46 24 3 0
8 -11 11 -25 5 -21 12 -25 42 -25 31 0 35 3 29 18 -5 9 -11 94 -14 189 -6 164
-7 173 -30 197 -42 45 -154 60 -234 32z m193 -246 c0 -48 -26 -98 -62 -120
-92 -56 -212 14 -150 89 12 15 43 27 102 40 114 25 110 25 110 -9z"/>
<path d="M26883 4961 c-66 -31 -92 -101 -57 -160 22 -37 38 -46 141 -75 80
-24 123 -50 123 -77 0 -4 -10 -20 -23 -34 -16 -20 -35 -28 -67 -31 -54 -6 -88
10 -115 53 -20 32 -47 41 -74 24 -12 -8 -12 -14 -1 -40 37 -90 168 -125 277
-74 72 34 95 128 45 183 -21 24 -49 38 -127 61 -113 34 -131 46 -121 84 8 30
40 45 95 45 41 0 91 -31 91 -56 0 -15 12 -17 48 -8 19 6 22 11 17 33 -9 36
-24 51 -70 72 -52 24 -129 24 -182 0z"/>
<path d="M27590 4965 c-99 -45 -146 -154 -120 -281 19 -90 78 -145 171 -159
84 -13 169 28 205 98 13 24 14 31 2 38 -26 17 -51 8 -87 -31 -65 -73 -159 -62
-201 24 -37 77 -41 75 143 78 l162 3 -3 50 c-7 112 -74 183 -179 191 -39 3
-69 -1 -93 -11z m145 -67 c25 -20 55 -73 55 -98 0 -6 -46 -10 -125 -10 l-125
0 6 28 c23 90 122 133 189 80z"/>
<path d="M28065 4946 l-35 -37 0 30 c0 28 -3 31 -30 31 l-30 0 0 -220 0 -220
35 0 35 0 0 138 c0 167 10 209 52 227 20 8 42 10 59 5 24 -7 29 -5 40 21 15
38 5 49 -50 56 -38 5 -44 3 -76 -31z"/>
<path d="M24860 4444 c-538 -267 -574 -286 -555 -300 27 -20 1131 -574 1145
-574 6 0 10 78 10 230 l0 230 1900 0 1901 0 -3 118 -3 117 -1897 3 -1898 2 0
230 c0 177 -3 230 -12 230 -7 0 -272 -129 -588 -286z"/>
<path d="M33810 4645 c0 -3 36 -59 80 -125 l80 -119 0 -91 c0 -89 0 -90 25
-90 25 0 25 1 25 88 l0 88 85 124 c47 68 85 125 85 127 0 2 -14 3 -30 3 -27 0
-37 -10 -96 -101 l-67 -101 -22 39 c-12 22 -41 67 -64 101 -35 53 -46 62 -71
62 -17 0 -30 -2 -30 -5z"/>
<path d="M34335 4637 c-42 -19 -92 -79 -104 -124 -27 -97 -3 -192 62 -250 65
-57 188 -60 255 -6 60 49 77 87 77 173 0 89 -21 138 -78 184 -34 27 -47 31
-110 33 -45 2 -83 -2 -102 -10z m163 -47 c99 -61 94 -262 -8 -315 -43 -22
-101 -19 -141 8 -47 31 -69 79 -69 152 0 73 22 121 69 152 43 29 104 30 149 3z"/>
<path d="M34700 4435 l0 -215 135 0 135 0 0 25 0 25 -105 0 -105 0 0 190 0
190 -30 0 -30 0 0 -215z"/>
<path d="M35135 4636 c-135 -59 -154 -283 -32 -380 31 -25 49 -31 101 -34 82
-5 126 10 170 58 96 107 63 305 -61 356 -41 18 -139 17 -178 0z m166 -49 c47
-31 69 -79 69 -152 0 -73 -22 -121 -69 -152 -69 -46 -164 -19 -204 57 -23 45
-19 165 7 205 42 64 134 84 197 42z"/>
<path d="M35870 4633 c-54 -28 -81 -88 -86 -186 -8 -150 42 -227 145 -227 87
1 131 48 131 143 0 51 -4 61 -33 93 -45 50 -105 57 -159 20 -21 -14 -38 -24
-38 -21 0 2 5 26 11 53 17 83 81 122 132 82 15 -12 27 -28 27 -36 0 -8 10 -14
25 -14 35 0 33 38 -4 74 -38 37 -102 45 -151 19z m118 -209 c49 -55 13 -163
-56 -164 -34 0 -60 17 -77 50 -18 35 -19 67 -1 99 30 54 92 61 134 15z"/>
<path d="M36393 4635 c-36 -15 -61 -49 -65 -85 -3 -21 1 -25 22 -25 17 0 26 6
28 20 9 48 57 72 109 54 41 -13 57 -41 49 -85 -5 -26 -28 -53 -97 -116 -80
-74 -129 -137 -129 -168 0 -6 50 -10 140 -10 l140 0 0 25 0 25 -100 0 c-55 0
-100 4 -100 9 0 5 33 37 74 72 41 34 85 76 97 92 31 42 37 116 13 152 -33 51
-115 69 -181 40z"/>
<path d="M36905 4641 c-55 -23 -84 -93 -85 -205 0 -96 15 -149 53 -187 24 -25
36 -29 82 -29 100 0 139 60 140 215 0 104 -24 168 -74 198 -31 18 -82 21 -116
8z m85 -46 c40 -21 53 -70 49 -183 -5 -122 -35 -165 -105 -148 -42 11 -59 59
-59 171 0 120 19 161 83 174 2 1 16 -6 32 -14z"/>
<path d="M35474 4513 c3 -10 30 -80 59 -155 48 -127 54 -138 77 -138 23 0 29
12 80 146 30 81 57 151 59 156 2 5 -10 8 -25 6 -26 -3 -32 -11 -65 -103 -21
-55 -40 -109 -43 -120 -4 -14 -16 7 -40 75 -55 154 -53 150 -82 150 -21 0 -25
-4 -20 -17z"/>
<path d="M36110 4375 c0 -25 1 -25 80 -25 79 0 80 0 80 25 0 25 -1 25 -80 25
-79 0 -80 0 -80 -25z"/>
<path d="M36680 4250 c0 -27 3 -30 30 -30 27 0 30 3 30 30 0 27 -3 30 -30 30
-27 0 -30 -3 -30 -30z"/>
<path d="M33810 3795 c0 -3 36 -59 80 -125 l80 -119 0 -91 c0 -89 0 -90 25
-90 25 0 25 1 25 88 l0 88 85 124 c47 68 85 125 85 127 0 2 -14 3 -30 3 -27 0
-37 -10 -96 -101 l-67 -101 -22 39 c-12 22 -41 67 -64 101 -35 53 -46 62 -71
62 -17 0 -30 -2 -30 -5z"/>
<path d="M34335 3787 c-42 -19 -92 -79 -104 -124 -27 -97 -3 -192 62 -250 65
-57 188 -60 255 -6 60 49 77 87 77 173 0 89 -21 138 -78 184 -34 27 -47 31
-110 33 -45 2 -83 -2 -102 -10z m163 -47 c99 -61 94 -262 -8 -315 -43 -22
-101 -19 -141 8 -47 31 -69 79 -69 152 0 73 22 121 69 152 43 29 104 30 149 3z"/>
<path d="M34700 3585 l0 -215 135 0 135 0 0 25 0 25 -105 0 -105 0 0 190 0
190 -30 0 -30 0 0 -215z"/>
<path d="M35135 3786 c-135 -59 -154 -283 -32 -380 31 -25 49 -31 101 -34 82
-5 126 10 170 58 96 107 63 305 -61 356 -41 18 -139 17 -178 0z m166 -49 c47
-31 69 -79 69 -152 0 -73 -22 -121 -69 -152 -69 -46 -164 -19 -204 57 -23 45
-19 165 7 205 42 64 134 84 197 42z"/>
<path d="M35814 3690 l-20 -109 20 -3 c12 -2 33 5 49 16 69 50 147 7 147 -80
0 -104 -122 -145 -160 -54 -9 21 -19 30 -36 30 -37 0 -32 -44 10 -86 31 -31
39 -34 95 -34 53 0 64 4 96 31 116 103 23 295 -122 251 l-35 -11 7 47 c4 26 9
50 12 55 2 4 42 7 89 7 83 0 84 0 84 25 l0 25 -108 0 -109 0 -19 -110z"/>
<path d="M36320 3775 l0 -25 106 0 105 0 -25 -32 c-40 -53 -86 -154 -107 -235
-26 -105 -25 -113 11 -113 27 0 30 3 30 33 0 77 52 208 120 305 64 92 64 92
-100 92 l-140 0 0 -25z"/>
<path d="M36893 3780 c-54 -33 -68 -71 -68 -190 0 -165 35 -220 141 -220 39 0
51 5 79 33 83 83 67 334 -25 382 -40 21 -89 19 -127 -5z m114 -42 c24 -19 35
-84 32 -180 -4 -86 -7 -99 -28 -122 -40 -42 -91 -32 -121 24 -20 35 -19 205 0
245 25 49 78 64 117 33z"/>
<path d="M35474 3663 c3 -10 30 -80 59 -155 48 -127 54 -138 77 -138 23 0 29
12 80 146 30 81 57 151 59 156 2 5 -10 8 -25 6 -26 -3 -32 -11 -65 -103 -21
-55 -40 -109 -43 -120 -4 -14 -16 7 -40 75 -55 154 -53 150 -82 150 -21 0 -25
-4 -20 -17z"/>
<path d="M36110 3525 c0 -25 1 -25 80 -25 79 0 80 0 80 25 0 25 -1 25 -80 25
-79 0 -80 0 -80 -25z"/>
<path d="M36680 3400 c0 -27 3 -30 30 -30 27 0 30 3 30 30 0 27 -3 30 -30 30
-27 0 -30 -3 -30 -30z"/>
<path d="M2330 11812 c-21 -10 -45 -34 -60 -62 -23 -41 -25 -55 -25 -170 0
-105 3 -131 20 -165 57 -113 196 -113 255 1 22 44 25 60 25 164 0 103 -3 120
-25 164 -41 79 -115 106 -190 68z m101 -42 c40 -22 53 -68 54 -190 0 -92 -4
-122 -18 -148 -34 -63 -98 -67 -140 -10 -16 22 -22 47 -25 118 -6 124 3 177
38 212 30 29 58 35 91 18z"/>
<path d="M21170 11812 c-21 -10 -45 -34 -60 -62 -23 -41 -25 -55 -25 -170 0
-105 3 -131 20 -165 57 -113 196 -113 255 1 22 44 25 60 25 164 0 103 -3 120
-25 164 -41 79 -115 106 -190 68z m101 -42 c40 -22 53 -68 54 -190 0 -92 -4
-122 -18 -148 -34 -63 -98 -67 -140 -10 -16 22 -22 47 -25 118 -6 124 3 177
38 212 30 29 58 35 91 18z"/>
<path d="M1916 11723 c-10 -54 -20 -110 -23 -124 -7 -38 28 -45 74 -13 82 55
163 7 163 -97 0 -33 -7 -48 -34 -75 -23 -23 -43 -34 -64 -34 -36 0 -78 31 -86
65 -5 20 -13 25 -36 25 -37 0 -40 -23 -7 -71 32 -48 81 -71 140 -66 88 8 147
74 147 166 0 113 -92 187 -191 152 -18 -6 -34 -9 -36 -7 -3 3 0 30 7 60 l11
56 95 0 94 0 0 30 0 30 -118 0 -119 0 -17 -97z"/>
<path d="M20756 11723 c-10 -54 -20 -110 -23 -124 -7 -38 28 -45 74 -13 82 55
163 7 163 -97 0 -33 -7 -48 -34 -75 -23 -23 -43 -34 -64 -34 -36 0 -78 31 -86
65 -5 20 -13 25 -36 25 -37 0 -40 -23 -7 -71 32 -48 81 -71 140 -66 88 8 147
74 147 166 0 113 -92 187 -191 152 -18 -6 -34 -9 -36 -7 -3 3 0 30 7 60 l11
56 95 0 94 0 0 30 0 30 -118 0 -119 0 -17 -97z"/>
<path d="M921 10727 c-48 -17 -73 -54 -73 -111 l0 -46 -39 0 -39 0 0 70 c0 63
-2 70 -20 70 -19 0 -20 -7 -20 -90 l0 -90 85 0 85 0 -10 26 c-26 68 8 134 70
134 64 0 98 -71 70 -145 -9 -24 -8 -26 12 -23 21 3 23 9 26 70 3 73 -6 100
-41 122 -34 21 -69 25 -106 13z"/>
<path d="M19761 10727 c-48 -17 -73 -54 -73 -111 l0 -46 -39 0 -39 0 0 70 c0
63 -2 70 -20 70 -19 0 -20 -7 -20 -90 l0 -90 85 0 85 0 -10 26 c-26 68 8 134
70 134 64 0 98 -71 70 -145 -9 -24 -8 -26 12 -23 21 3 23 9 26 70 3 73 -6 100
-41 122 -34 21 -69 25 -106 13z"/>
<path d="M794 10436 c-17 -8 -39 -24 -48 -37 -18 -26 -21 -100 -6 -130 22 -41
98 -61 154 -39 54 20 76 103 41 156 -16 25 -16 26 7 19 85 -24 109 -58 91
-127 -10 -37 -9 -39 11 -36 18 3 21 11 24 61 4 70 -11 98 -68 127 -47 24 -157
27 -206 6z m100 -57 c29 -23 33 -54 10 -87 -12 -18 -25 -22 -64 -22 -53 0 -80
22 -80 66 0 29 45 64 80 64 15 0 39 -9 54 -21z"/>
<path d="M19634 10436 c-17 -8 -39 -24 -48 -37 -18 -26 -21 -100 -6 -130 22
-41 98 -61 154 -39 54 20 76 103 41 156 -16 25 -16 26 7 19 85 -24 109 -58 91
-127 -10 -37 -9 -39 11 -36 18 3 21 11 24 61 4 70 -11 98 -68 127 -47 24 -157
27 -206 6z m100 -57 c29 -23 33 -54 10 -87 -12 -18 -25 -22 -64 -22 -53 0 -80
22 -80 66 0 29 45 64 80 64 15 0 39 -9 54 -21z"/>
<path d="M900 9895 c0 -138 1 -145 20 -145 19 0 20 7 20 145 0 138 -1 145 -20
145 -19 0 -20 -7 -20 -145z"/>
<path d="M19740 9895 c0 -138 1 -145 20 -145 19 0 20 7 20 145 0 138 -1 145
-20 145 -19 0 -20 -7 -20 -145z"/>
<path d="M1968 9821 c-68 -100 -108 -169 -108 -185 l0 -26 100 0 100 0 0 -60
0 -60 30 0 30 0 0 60 0 60 35 0 c31 0 35 3 35 25 0 22 -4 25 -35 25 l-35 0 0
160 c0 159 0 160 -22 160 -18 0 -45 -33 -130 -159z m89 -158 c-3 -2 -34 -3
-71 -1 l-66 3 68 102 67 101 3 -100 c1 -55 1 -102 -1 -105z"/>
<path d="M20808 9821 c-68 -100 -108 -169 -108 -185 l0 -26 100 0 100 0 0 -60
0 -60 30 0 30 0 0 60 0 60 35 0 c31 0 35 3 35 25 0 22 -4 25 -35 25 l-35 0 0
160 c0 159 0 160 -22 160 -18 0 -45 -33 -130 -159z m89 -158 c-3 -2 -34 -3
-71 -1 l-66 3 68 102 67 101 3 -100 c1 -55 1 -102 -1 -105z"/>
<path d="M2276 9868 c-10 -57 -20 -113 -23 -124 -3 -17 1 -23 23 -28 19 -5 30
-3 36 7 13 23 65 40 102 33 48 -9 76 -47 76 -102 0 -76 -40 -124 -103 -124
-32 0 -73 33 -81 65 -5 20 -13 25 -36 25 -37 0 -40 -23 -7 -71 32 -48 81 -71
140 -66 88 8 147 74 147 166 0 113 -92 187 -191 152 -18 -6 -34 -10 -36 -8 -1
2 2 29 8 60 l12 57 93 0 94 0 0 30 0 30 -118 0 -119 0 -17 -102z"/>
<path d="M21116 9868 c-10 -57 -20 -113 -23 -124 -3 -17 1 -23 23 -28 19 -5
30 -3 36 7 13 23 65 40 102 33 48 -9 76 -47 76 -102 0 -76 -40 -124 -103 -124
-32 0 -73 33 -81 65 -5 20 -13 25 -36 25 -37 0 -40 -23 -7 -71 32 -48 81 -71
140 -66 88 8 147 74 147 166 0 113 -92 187 -191 152 -18 -6 -34 -10 -36 -8 -1
2 2 29 8 60 l12 57 93 0 94 0 0 30 0 30 -118 0 -119 0 -17 -102z"/>
<path d="M1180 9725 c0 -20 12 -24 148 -49 81 -15 159 -30 175 -33 23 -5 27
-2 27 16 0 11 -3 21 -7 21 -5 1 -83 16 -175 34 l-168 33 0 -22z"/>
<path d="M20020 9725 c0 -20 12 -24 148 -49 81 -15 159 -30 175 -33 23 -5 27
-2 27 16 0 11 -3 21 -7 21 -5 1 -83 16 -175 34 l-168 33 0 -22z"/>
<path d="M855 9584 c-11 -3 -30 -7 -42 -9 -12 -3 -35 -17 -52 -31 -26 -22 -31
-33 -31 -71 0 -89 41 -117 170 -117 129 0 170 28 170 117 0 45 -18 71 -65 95
-24 12 -122 22 -150 16z m127 -54 c43 -12 63 -40 53 -77 -8 -33 -59 -53 -135
-53 -106 0 -161 42 -131 99 20 36 133 53 213 31z"/>
<path d="M1297 9572 c-12 -13 -17 -36 -17 -74 0 -66 7 -88 26 -88 11 0 13 11
8 55 -5 38 -3 59 6 70 25 30 36 16 48 -57 9 -58 16 -78 37 -95 30 -27 71 -29
103 -7 27 19 31 87 6 122 -14 20 -14 22 1 22 11 0 15 7 13 22 -2 18 -13 24
-63 35 -90 18 -149 17 -168 -5z m174 -61 c32 -33 38 -71 13 -95 -39 -40 -84 5
-84 83 0 35 3 41 21 41 11 0 34 -13 50 -29z"/>
<path d="M19695 9584 c-11 -3 -30 -7 -42 -9 -12 -3 -35 -17 -52 -31 -26 -22
-31 -33 -31 -71 0 -89 41 -117 170 -117 129 0 170 28 170 117 0 45 -18 71 -65
95 -24 12 -122 22 -150 16z m127 -54 c43 -12 63 -40 53 -77 -8 -33 -59 -53
-135 -53 -106 0 -161 42 -131 99 20 36 133 53 213 31z"/>
<path d="M20137 9572 c-12 -13 -17 -36 -17 -74 0 -66 7 -88 26 -88 11 0 13 11
8 55 -5 38 -3 59 6 70 25 30 36 16 48 -57 9 -58 16 -78 37 -95 30 -27 71 -29
103 -7 27 19 31 87 6 122 -14 20 -14 22 1 22 11 0 15 7 13 22 -2 18 -13 24
-63 35 -90 18 -149 17 -168 -5z m174 -61 c32 -33 38 -71 13 -95 -39 -40 -84 5
-84 83 0 35 3 41 21 41 11 0 34 -13 50 -29z"/>
<path d="M1190 9339 c0 -20 22 -36 141 -103 91 -51 136 -81 128 -86 -8 -4 -63
-15 -124 -24 -140 -22 -145 -24 -145 -47 0 -24 2 -24 185 9 l150 27 0 29 c0
26 -13 35 -155 118 -188 109 -180 106 -180 77z"/>
<path d="M20030 9339 c0 -20 22 -36 141 -103 91 -51 136 -81 128 -86 -8 -4
-63 -15 -124 -24 -140 -22 -145 -24 -145 -47 0 -24 2 -24 185 9 l150 27 0 29
c0 26 -13 35 -155 118 -188 109 -180 106 -180 77z"/>
<path d="M921 9267 c-48 -17 -73 -54 -73 -111 l0 -46 -39 0 -39 0 0 70 c0 63
-2 70 -20 70 -19 0 -20 -7 -20 -90 l0 -90 85 0 85 0 -10 26 c-26 68 8 134 70
134 64 0 98 -71 70 -145 -9 -24 -8 -26 12 -23 21 3 23 9 26 70 3 73 -6 100
-41 122 -34 21 -69 25 -106 13z"/>
<path d="M19761 9267 c-48 -17 -73 -54 -73 -111 l0 -46 -39 0 -39 0 0 70 c0
63 -2 70 -20 70 -19 0 -20 -7 -20 -90 l0 -90 85 0 85 0 -10 26 c-26 68 8 134
70 134 64 0 98 -71 70 -145 -9 -24 -8 -26 12 -23 21 3 23 9 26 70 3 73 -6 100
-41 122 -34 21 -69 25 -106 13z"/>
<path d="M921 8967 c-13 -6 -34 -25 -45 -40 -18 -25 -21 -45 -24 -168 l-4
-139 244 2 243 3 3 28 3 27 -100 0 -101 0 0 93 c-1 151 -40 207 -147 207 -26
0 -59 -6 -72 -13z m112 -58 c36 -16 47 -50 47 -144 l0 -85 -85 0 -85 0 0 95
c0 88 2 98 25 120 26 27 60 32 98 14z"/>
<path d="M19761 8967 c-13 -6 -34 -25 -45 -40 -18 -25 -21 -45 -24 -168 l-4
-139 244 2 243 3 3 28 3 27 -100 0 -101 0 0 93 c-1 151 -40 207 -147 207 -26
0 -59 -6 -72 -13z m112 -58 c36 -16 47 -50 47 -144 l0 -85 -85 0 -85 0 0 95
c0 88 2 98 25 120 26 27 60 32 98 14z"/>
<path d="M1085 8465 l-230 -93 -3 -35 -3 -34 148 -56 c81 -31 189 -72 238 -91
50 -19 94 -30 98 -26 5 4 7 18 5 31 -2 19 -17 28 -73 50 l-70 26 -3 100 -3
100 73 29 c68 27 73 31 76 62 2 21 -1 32 -10 31 -7 0 -116 -42 -243 -94z m52
-201 c-2 -2 -53 13 -114 34 l-110 37 111 41 111 41 3 -75 c2 -41 1 -76 -1 -78z"/>
<path d="M19925 8465 l-230 -93 -3 -35 -3 -34 148 -56 c81 -31 189 -72 238
-91 50 -19 94 -30 98 -26 5 4 7 18 5 31 -2 19 -17 28 -73 50 l-70 26 -3 100
-3 100 73 29 c68 27 73 31 76 62 2 21 -1 32 -10 31 -7 0 -116 -42 -243 -94z
m52 -201 c-2 -2 -53 13 -114 34 l-110 37 111 41 111 41 3 -75 c2 -41 1 -76 -1
-78z"/>
<path d="M1968 7971 c-68 -100 -108 -169 -108 -185 l0 -26 100 0 100 0 0 -60
0 -60 30 0 30 0 0 60 0 60 35 0 c31 0 35 3 35 25 0 22 -4 25 -35 25 l-35 0 0
160 c0 159 0 160 -22 160 -18 0 -45 -33 -130 -159z m89 -158 c-3 -2 -34 -3
-71 -1 l-66 3 68 102 67 101 3 -100 c1 -55 1 -102 -1 -105z"/>
<path d="M2330 8112 c-24 -12 -43 -33 -60 -67 -23 -45 -25 -62 -25 -170 0
-105 3 -125 23 -163 59 -111 194 -110 252 3 22 44 25 61 25 165 0 104 -3 121
-25 164 -41 79 -115 106 -190 68z m113 -52 c34 -27 51 -108 45 -215 -5 -91
-21 -133 -60 -154 -34 -19 -73 -7 -101 31 -25 34 -36 190 -17 267 20 83 78
114 133 71z"/>
<path d="M20808 7971 c-68 -100 -108 -169 -108 -185 l0 -26 100 0 100 0 0 -60
0 -60 30 0 30 0 0 60 0 60 35 0 c31 0 35 3 35 25 0 22 -4 25 -35 25 l-35 0 0
160 c0 159 0 160 -22 160 -18 0 -45 -33 -130 -159z m89 -158 c-3 -2 -34 -3
-71 -1 l-66 3 68 102 67 101 3 -100 c1 -55 1 -102 -1 -105z"/>
<path d="M21170 8112 c-24 -12 -43 -33 -60 -67 -23 -45 -25 -62 -25 -170 0
-105 3 -125 23 -163 59 -111 194 -110 252 3 22 44 25 61 25 165 0 104 -3 121
-25 164 -41 79 -115 106 -190 68z m113 -52 c34 -27 51 -108 45 -215 -5 -91
-21 -133 -60 -154 -34 -19 -73 -7 -101 31 -25 34 -36 190 -17 267 20 83 78
114 133 71z"/>
<path d="M1033 8070 c-27 -11 -53 -59 -53 -98 0 -16 11 -46 25 -66 l25 -38
-25 -30 c-31 -36 -32 -80 -5 -131 17 -31 17 -37 5 -37 -10 0 -15 -10 -15 -30
l0 -30 175 0 175 0 0 30 0 30 -110 0 c-124 0 -173 14 -191 54 -16 35 -3 75 27
86 14 6 81 10 150 10 l124 0 0 30 0 30 -130 0 c-126 0 -132 1 -155 25 -30 29
-33 75 -7 98 15 14 42 17 155 17 l137 0 0 30 0 30 -142 -1 c-79 0 -153 -4
-165 -9z"/>
<path d="M19873 8070 c-27 -11 -53 -59 -53 -98 0 -16 11 -46 25 -66 l25 -38
-25 -30 c-31 -36 -32 -80 -5 -131 17 -31 17 -37 5 -37 -10 0 -15 -10 -15 -30
l0 -30 175 0 175 0 0 30 0 30 -110 0 c-124 0 -173 14 -191 54 -16 35 -3 75 27
86 14 6 81 10 150 10 l124 0 0 30 0 30 -130 0 c-126 0 -132 1 -155 25 -30 29
-33 75 -7 98 15 14 42 17 155 17 l137 0 0 30 0 30 -142 -1 c-79 0 -153 -4
-165 -9z"/>
<path d="M1007 7346 c-200 -56 -226 -327 -40 -416 72 -35 190 -34 258 2 60 31
77 49 104 108 50 109 4 238 -103 289 -55 27 -156 35 -219 17z m203 -78 c64
-33 85 -67 85 -138 0 -71 -21 -105 -85 -137 -91 -47 -232 -22 -284 50 -16 21
-21 44 -21 87 0 71 21 105 85 138 33 16 62 22 110 22 48 0 77 -6 110 -22z"/>
<path d="M19847 7346 c-200 -56 -226 -327 -40 -416 72 -35 190 -34 258 2 60
31 77 49 104 108 50 109 4 238 -103 289 -55 27 -156 35 -219 17z m203 -78 c64
-33 85 -67 85 -138 0 -71 -21 -105 -85 -137 -91 -47 -232 -22 -284 50 -16 21
-21 44 -21 87 0 71 21 105 85 138 33 16 62 22 110 22 48 0 77 -6 110 -22z"/>
<path d="M955 6813 c-46 -24 -66 -44 -86 -88 -46 -99 -2 -232 93 -281 74 -38
203 -38 279 2 67 34 107 103 108 187 2 85 -37 150 -110 183 -35 15 -42 16 -50
3 -17 -27 -9 -44 32 -64 120 -58 97 -228 -36 -264 -144 -39 -272 18 -283 127
-5 62 16 107 63 129 34 16 40 31 27 65 -6 15 -10 15 -37 1z"/>
<path d="M19795 6813 c-46 -24 -66 -44 -86 -88 -46 -99 -2 -232 93 -281 74
-38 203 -38 279 2 67 34 107 103 108 187 2 85 -37 150 -110 183 -35 15 -42 16
-50 3 -17 -27 -9 -44 32 -64 120 -58 97 -228 -36 -264 -144 -39 -272 18 -283
127 -5 62 16 107 63 129 34 16 40 31 27 65 -6 15 -10 15 -37 1z"/>
<path d="M1007 6346 c-200 -56 -226 -327 -40 -416 72 -35 190 -34 258 2 60 31
77 49 104 108 50 109 4 238 -103 289 -55 27 -156 35 -219 17z m203 -78 c64
-33 85 -67 85 -138 0 -71 -21 -105 -85 -137 -91 -47 -232 -22 -284 50 -16 21
-21 44 -21 87 0 71 21 105 85 138 33 16 62 22 110 22 48 0 77 -6 110 -22z"/>
<path d="M19847 6346 c-200 -56 -226 -327 -40 -416 72 -35 190 -34 258 2 60
31 77 49 104 108 50 109 4 238 -103 289 -55 27 -156 35 -219 17z m203 -78 c64
-33 85 -67 85 -138 0 -71 -21 -105 -85 -137 -91 -47 -232 -22 -284 50 -16 21
-21 44 -21 87 0 71 21 105 85 138 33 16 62 22 110 22 48 0 77 -6 110 -22z"/>
<path d="M1960 6262 c-22 -11 -44 -36 -58 -63 l-22 -44 27 -7 c16 -4 29 -4 31
0 29 86 122 110 157 41 26 -50 -2 -104 -60 -115 -25 -4 -34 -12 -38 -30 -4
-22 -1 -24 33 -24 22 0 48 -8 63 -20 70 -55 24 -170 -68 -170 -29 0 -85 49
-85 74 0 11 -9 16 -30 16 -37 0 -40 -23 -7 -71 87 -131 302 -56 284 99 -4 37
-12 53 -39 77 l-34 30 23 23 c32 35 38 75 16 119 -36 73 -123 103 -193 65z"/>
<path d="M20800 6262 c-22 -11 -44 -36 -58 -63 l-22 -44 27 -7 c16 -4 29 -4
31 0 29 86 122 110 157 41 26 -50 -2 -104 -60 -115 -25 -4 -34 -12 -38 -30 -4
-22 -1 -24 33 -24 22 0 48 -8 63 -20 70 -55 24 -170 -68 -170 -29 0 -85 49
-85 74 0 11 -9 16 -30 16 -37 0 -40 -23 -7 -71 87 -131 302 -56 284 99 -4 37
-12 53 -39 77 l-34 30 23 23 c32 35 38 75 16 119 -36 73 -123 103 -193 65z"/>
<path d="M2276 6173 c-10 -54 -20 -110 -23 -124 -7 -38 28 -45 74 -13 82 55
163 7 163 -97 0 -33 -7 -48 -34 -75 -23 -23 -43 -34 -64 -34 -36 0 -78 31 -86
65 -5 20 -13 25 -36 25 -37 0 -40 -23 -7 -71 32 -48 81 -71 140 -66 88 8 147
74 147 166 0 113 -92 187 -191 152 -18 -6 -34 -9 -36 -7 -3 3 0 30 7 60 l11
56 95 0 94 0 0 30 0 30 -118 0 -119 0 -17 -97z"/>
<path d="M21116 6173 c-10 -54 -20 -110 -23 -124 -7 -38 28 -45 74 -13 82 55
163 7 163 -97 0 -33 -7 -48 -34 -75 -23 -23 -43 -34 -64 -34 -36 0 -78 31 -86
65 -5 20 -13 25 -36 25 -37 0 -40 -23 -7 -71 32 -48 81 -71 140 -66 88 8 147
74 147 166 0 113 -92 187 -191 152 -18 -6 -34 -9 -36 -7 -3 3 0 30 7 60 l11
56 95 0 94 0 0 30 0 30 -118 0 -119 0 -17 -97z"/>
<path d="M955 5823 c-46 -24 -66 -44 -86 -88 -46 -99 -2 -232 93 -281 74 -38
203 -38 279 2 67 34 107 103 108 187 2 85 -37 150 -110 183 -35 15 -42 16 -50
3 -17 -27 -9 -44 32 -64 120 -58 97 -228 -36 -264 -144 -39 -272 18 -283 127
-5 62 16 107 63 129 34 16 40 31 27 65 -6 15 -10 15 -37 1z"/>
<path d="M19795 5823 c-46 -24 -66 -44 -86 -88 -46 -99 -2 -232 93 -281 74
-38 203 -38 279 2 67 34 107 103 108 187 2 85 -37 150 -110 183 -35 15 -42 16
-50 3 -17 -27 -9 -44 32 -64 120 -58 97 -228 -36 -264 -144 -39 -272 18 -283
127 -5 62 16 107 63 129 34 16 40 31 27 65 -6 15 -10 15 -37 1z"/>
<path d="M1960 4412 c-22 -11 -44 -36 -58 -63 l-22 -44 27 -7 c16 -4 29 -4 31
0 29 86 122 110 157 41 26 -50 -2 -104 -60 -115 -25 -4 -34 -12 -38 -30 -4
-22 -1 -24 33 -24 22 0 48 -8 63 -20 70 -55 24 -170 -68 -170 -29 0 -85 49
-85 74 0 11 -9 16 -30 16 -37 0 -40 -23 -7 -71 87 -131 302 -56 284 99 -4 37
-12 53 -39 77 l-34 30 23 23 c32 35 38 75 16 119 -36 73 -123 103 -193 65z"/>
<path d="M2330 4412 c-21 -10 -45 -34 -60 -62 -23 -41 -25 -55 -25 -170 0
-105 3 -131 20 -165 57 -113 196 -113 255 1 22 44 25 60 25 164 0 103 -3 120
-25 164 -41 79 -115 106 -190 68z m101 -42 c40 -22 53 -68 54 -190 0 -92 -4
-122 -18 -148 -34 -63 -98 -67 -140 -10 -16 22 -22 47 -25 118 -6 124 3 177
38 212 30 29 58 35 91 18z"/>
<path d="M20800 4412 c-22 -11 -44 -36 -58 -63 l-22 -44 27 -7 c16 -4 29 -4
31 0 29 86 122 110 157 41 26 -50 -2 -104 -60 -115 -25 -4 -34 -12 -38 -30 -4
-22 -1 -24 33 -24 22 0 48 -8 63 -20 70 -55 24 -170 -68 -170 -29 0 -85 49
-85 74 0 11 -9 16 -30 16 -37 0 -40 -23 -7 -71 87 -131 302 -56 284 99 -4 37
-12 53 -39 77 l-34 30 23 23 c32 35 38 75 16 119 -36 73 -123 103 -193 65z"/>
<path d="M21170 4412 c-21 -10 -45 -34 -60 -62 -23 -41 -25 -55 -25 -170 0
-105 3 -131 20 -165 57 -113 196 -113 255 1 22 44 25 60 25 164 0 103 -3 120
-25 164 -41 79 -115 106 -190 68z m101 -42 c40 -22 53 -68 54 -190 0 -92 -4
-122 -18 -148 -34 -63 -98 -67 -140 -10 -16 22 -22 47 -25 118 -6 124 3 177
38 212 30 29 58 35 91 18z"/>
<path d="M2990 2222 c-21 -10 -45 -34 -60 -62 -23 -41 -25 -55 -25 -170 0
-105 3 -131 20 -165 57 -113 196 -113 255 1 22 44 25 60 25 164 0 103 -3 120
-25 164 -41 79 -115 106 -190 68z m101 -42 c40 -22 53 -68 54 -190 0 -92 -4
-122 -18 -148 -34 -63 -98 -67 -140 -10 -16 22 -22 47 -25 118 -6 124 3 177
38 212 30 29 58 35 91 18z"/>
<path d="M6276 2230 c-40 -12 -74 -47 -86 -89 -5 -19 -8 -36 -7 -37 1 0 14 -4
29 -8 23 -5 27 -2 33 24 15 66 103 93 150 45 19 -18 25 -35 25 -66 0 -41 -4
-47 -110 -150 -97 -94 -140 -152 -140 -189 0 -6 57 -10 160 -10 l160 0 0 30 0
30 -115 0 c-63 0 -115 4 -115 8 0 5 43 48 95 96 109 100 125 125 125 194 0
100 -93 155 -204 122z"/>
<path d="M6640 2222 c-21 -10 -45 -34 -60 -62 -23 -41 -25 -55 -25 -170 0
-105 3 -131 20 -165 57 -113 196 -113 255 1 22 44 25 60 25 164 0 103 -3 120
-25 164 -41 79 -115 106 -190 68z m101 -42 c40 -22 53 -68 54 -190 0 -92 -4
-122 -18 -148 -34 -63 -98 -67 -140 -10 -16 22 -22 47 -25 118 -6 124 3 177
38 212 30 29 58 35 91 18z"/>
<path d="M9748 2081 c-68 -100 -108 -169 -108 -185 l0 -26 100 0 100 0 0 -60
0 -60 30 0 30 0 0 60 0 60 35 0 c31 0 35 3 35 25 0 22 -4 25 -35 25 l-35 0 0
160 c0 159 0 160 -22 160 -18 0 -45 -33 -130 -159z m89 -158 c-3 -2 -34 -3
-71 -1 l-66 3 68 102 67 101 3 -100 c1 -55 1 -102 -1 -105z"/>
<path d="M10110 2222 c-24 -12 -43 -33 -60 -67 -23 -45 -25 -62 -25 -170 0
-105 3 -125 23 -163 59 -111 194 -110 252 3 22 44 25 61 25 165 0 104 -3 121
-25 164 -41 79 -115 106 -190 68z m113 -52 c34 -27 51 -108 45 -215 -5 -91
-21 -133 -60 -154 -34 -19 -73 -7 -101 31 -25 34 -36 190 -17 267 20 83 78
114 133 71z"/>
<path d="M13235 2226 c-75 -33 -106 -106 -106 -250 0 -83 4 -106 23 -144 29
-59 64 -84 125 -89 63 -6 110 20 140 77 77 144 -63 302 -191 215 -20 -14 -39
-25 -42 -25 -8 0 9 85 23 115 33 66 95 84 138 40 14 -13 25 -31 25 -40 0 -10
10 -15 31 -15 29 0 31 2 24 28 -20 84 -108 124 -190 88z m110 -239 c51 -43 41
-157 -14 -187 -77 -41 -162 52 -131 144 21 63 96 86 145 43z"/>
<path d="M13580 2222 c-21 -10 -45 -34 -60 -62 -23 -41 -25 -55 -25 -170 0
-105 3 -131 20 -165 57 -113 196 -113 255 1 22 44 25 60 25 164 0 103 -3 120
-25 164 -41 79 -115 106 -190 68z m101 -42 c40 -22 53 -68 54 -190 0 -92 -4
-122 -18 -148 -34 -63 -98 -67 -140 -10 -16 22 -22 47 -25 118 -6 124 3 177
38 212 30 29 58 35 91 18z"/>
<path d="M16704 2226 c-76 -33 -101 -131 -46 -184 l27 -27 -37 -36 c-34 -32
-38 -41 -38 -86 0 -153 202 -211 288 -83 20 29 23 44 19 89 -3 46 -9 59 -38
86 l-35 31 28 26 c23 21 28 34 28 70 0 96 -102 155 -196 114z m110 -57 c52
-41 19 -129 -49 -129 -70 0 -103 87 -49 129 15 12 37 21 49 21 12 0 34 -9 49
-21z m19 -207 c11 -11 21 -39 24 -65 5 -41 2 -49 -25 -77 -42 -41 -92 -42
-133 -1 -41 42 -41 101 1 143 27 27 36 30 72 25 22 -3 50 -14 61 -25z"/>
<path d="M17060 2222 c-21 -10 -45 -34 -60 -62 -23 -41 -25 -55 -25 -170 0
-105 3 -131 20 -165 57 -113 196 -113 255 1 22 44 25 60 25 164 0 103 -3 120
-25 164 -41 79 -115 106 -190 68z m101 -42 c40 -22 53 -68 54 -190 0 -92 -4
-122 -18 -148 -34 -63 -98 -67 -140 -10 -16 22 -22 47 -25 118 -6 124 3 177
38 212 30 29 58 35 91 18z"/>
<path d="M22558 2206 c-15 -18 -47 -46 -72 -62 -36 -23 -46 -35 -46 -56 0 -16
4 -28 9 -28 5 0 32 15 60 34 l51 35 0 -190 0 -189 30 0 30 0 0 245 c0 227 -1
245 -17 245 -10 0 -30 -15 -45 -34z"/>
<path d="M23045 2231 c-29 -13 -62 -51 -79 -93 -35 -84 -29 -247 12 -327 35
-68 129 -91 193 -48 59 39 74 84 74 227 0 137 -14 183 -67 223 -29 21 -102 31
-133 18z m94 -57 c38 -27 51 -74 51 -183 0 -55 -5 -112 -11 -128 -33 -88 -115
-98 -156 -20 -21 41 -24 223 -5 279 22 63 73 85 121 52z"/>
<path d="M25348 2206 c-15 -18 -47 -46 -72 -62 -36 -23 -46 -35 -46 -56 0 -16
4 -28 9 -28 5 0 32 15 60 34 l51 35 0 -190 0 -189 30 0 30 0 0 245 c0 227 -1
245 -17 245 -10 0 -30 -15 -45 -34z"/>
<path d="M28076 2230 c-40 -12 -74 -47 -86 -89 -5 -19 -8 -36 -7 -37 1 0 14
-4 29 -8 23 -5 27 -2 33 24 15 66 103 93 150 45 19 -18 25 -35 25 -66 0 -41
-4 -47 -110 -150 -97 -94 -140 -152 -140 -189 0 -6 57 -10 160 -10 l160 0 0
30 0 30 -115 0 c-63 0 -115 4 -115 8 0 5 43 48 95 96 109 100 125 125 125 194
0 100 -93 155 -204 122z"/>
<path d="M28625 2225 c-48 -24 -76 -75 -88 -160 -21 -147 17 -281 89 -311 76
-32 149 -4 188 71 18 34 21 58 21 165 0 111 -3 130 -23 167 -12 24 -34 50 -47
59 -36 23 -104 28 -140 9z m115 -63 c35 -35 44 -88 38 -212 -3 -71 -9 -96 -25
-118 -42 -57 -106 -53 -140 10 -25 47 -25 248 0 295 32 60 82 69 127 25z"/>
<path d="M30876 2230 c-40 -12 -74 -47 -86 -89 -5 -19 -8 -36 -7 -37 1 0 14
-4 29 -8 23 -5 27 -2 33 24 15 66 103 93 150 45 19 -18 25 -35 25 -66 0 -41
-4 -47 -110 -150 -97 -94 -140 -152 -140 -189 0 -6 57 -10 160 -10 l160 0 0
30 0 30 -115 0 c-63 0 -115 4 -115 8 0 5 43 48 95 96 109 100 125 125 125 194
0 100 -93 155 -204 122z"/>
<path d="M33660 2222 c-22 -11 -44 -36 -58 -63 l-22 -44 27 -7 c16 -4 29 -4
31 0 29 86 122 110 157 41 26 -50 -2 -104 -60 -115 -25 -4 -34 -12 -38 -30 -4
-22 -1 -24 33 -24 22 0 48 -8 63 -20 70 -55 24 -170 -68 -170 -29 0 -85 49
-85 74 0 11 -9 16 -30 16 -37 0 -40 -23 -7 -71 87 -131 302 -56 284 99 -4 37
-12 53 -39 77 l-34 30 23 23 c32 35 38 75 16 119 -36 73 -123 103 -193 65z"/>
<path d="M34215 2225 c-48 -24 -76 -75 -88 -160 -21 -147 17 -281 89 -311 76
-32 149 -4 188 71 18 34 21 58 21 165 0 111 -3 130 -23 167 -12 24 -34 50 -47
59 -36 23 -104 28 -140 9z m115 -63 c35 -35 44 -88 38 -212 -3 -71 -9 -96 -25
-118 -42 -57 -106 -53 -140 10 -25 47 -25 248 0 295 32 60 82 69 127 25z"/>
<path d="M36450 2222 c-22 -11 -44 -36 -58 -63 l-22 -44 27 -7 c16 -4 29 -4
31 0 29 86 122 110 157 41 26 -50 -2 -104 -60 -115 -25 -4 -34 -12 -38 -30 -4
-22 -1 -24 33 -24 22 0 48 -8 63 -20 70 -55 24 -170 -68 -170 -29 0 -85 49
-85 74 0 11 -9 16 -30 16 -37 0 -40 -23 -7 -71 87 -131 302 -56 284 99 -4 37
-12 53 -39 77 l-34 30 23 23 c32 35 38 75 16 119 -36 73 -123 103 -193 65z"/>
<path d="M25785 2208 c-3 -13 -14 -69 -24 -125 l-18 -101 26 -5 c17 -4 34 2
54 19 57 48 137 20 157 -54 20 -78 -27 -152 -97 -152 -39 0 -83 37 -83 70 0
16 -6 20 -29 20 -17 0 -32 -4 -35 -9 -11 -17 39 -95 74 -113 47 -26 125 -20
170 12 38 27 69 90 70 139 0 55 -36 119 -81 141 -46 24 -78 25 -125 5 -36 -15
-36 -15 -31 8 4 12 9 41 13 65 l7 42 98 0 99 0 0 30 0 30 -120 0 c-116 0 -120
-1 -125 -22z"/>
<path d="M31385 2218 c-2 -7 -11 -56 -20 -108 -9 -52 -18 -102 -21 -111 -8
-29 46 -31 79 -3 41 34 90 32 128 -5 25 -26 29 -37 29 -86 0 -49 -4 -60 -29
-86 -50 -49 -121 -37 -147 27 -12 28 -19 34 -45 34 -29 0 -31 -2 -24 -27 31
-127 208 -154 280 -44 88 135 -26 303 -167 248 -40 -16 -40 -16 -34 6 3 12 8
41 12 65 l7 42 93 0 94 0 0 30 0 30 -115 0 c-84 0 -117 -3 -120 -12z"/>
<path d="M36965 2218 c-2 -7 -11 -56 -20 -108 -9 -52 -18 -102 -21 -111 -8
-29 46 -31 79 -3 41 34 90 32 128 -5 25 -26 29 -37 29 -86 0 -49 -4 -60 -29
-86 -50 -49 -121 -37 -147 27 -12 28 -19 34 -45 34 -29 0 -31 -2 -24 -27 31
-127 208 -154 280 -44 88 135 -26 303 -167 248 -40 -16 -40 -16 -34 6 3 12 8
41 12 65 l7 42 93 0 94 0 0 30 0 30 -115 0 c-84 0 -117 -3 -120 -12z"/>
<path d="M22790 1785 c0 -33 2 -35 35 -35 33 0 35 2 35 35 0 33 -2 35 -35 35
-33 0 -35 -2 -35 -35z"/>
<path d="M25580 1785 c0 -33 2 -35 35 -35 33 0 35 2 35 35 0 33 -2 35 -35 35
-33 0 -35 -2 -35 -35z"/>
<path d="M28380 1785 c0 -33 2 -35 35 -35 33 0 35 2 35 35 0 33 -2 35 -35 35
-33 0 -35 -2 -35 -35z"/>
<path d="M31180 1785 c0 -33 2 -35 35 -35 33 0 35 2 35 35 0 33 -2 35 -35 35
-33 0 -35 -2 -35 -35z"/>
<path d="M33970 1785 c0 -33 2 -35 35 -35 33 0 35 2 35 35 0 33 -2 35 -35 35
-33 0 -35 -2 -35 -35z"/>
<path d="M36760 1785 c0 -33 2 -35 35 -35 33 0 35 2 35 35 0 33 -2 35 -35 35
-33 0 -35 -2 -35 -35z"/>
<path d="M12400 1333 c-29 -38 -77 -141 -89 -193 -25 -109 -6 -227 58 -345 26
-49 44 -71 59 -73 27 -4 27 -1 1 50 -86 168 -89 361 -8 515 16 30 29 59 29 64
0 19 -29 8 -50 -18z"/>
<path d="M13080 1355 c0 -3 14 -32 30 -65 66 -131 79 -280 35 -417 -14 -43
-34 -93 -45 -111 -25 -41 -25 -44 2 -40 29 4 81 90 108 177 23 74 26 197 7
262 -18 58 -65 153 -89 179 -17 18 -48 28 -48 15z"/>
<path d="M33150 1331 c-66 -94 -107 -234 -96 -333 14 -122 89 -278 134 -278
l24 0 -20 33 c-31 49 -70 175 -77 247 -8 81 13 188 55 278 16 35 30 68 30 73
0 20 -30 7 -50 -20z"/>
<path d="M34263 1348 c-4 -7 -37 -121 -74 -253 -62 -225 -65 -240 -47 -243 11
-2 22 -1 24 1 9 9 141 497 136 502 -10 9 -31 5 -39 -7z"/>
<path d="M35430 1350 c0 -6 14 -38 31 -72 34 -67 59 -168 59 -238 0 -71 -26
-175 -63 -251 -32 -66 -32 -69 -12 -69 25 0 74 76 107 166 32 85 31 226 -2
309 -30 78 -86 165 -105 165 -8 0 -15 -5 -15 -10z"/>
<path d="M8682 1108 l3 -243 28 -3 27 -3 0 100 0 101 93 0 c159 1 213 43 205
161 -8 106 -51 129 -241 129 l-117 0 2 -242z m273 157 c40 -39 28 -111 -22
-134 -13 -6 -62 -11 -108 -11 l-85 0 0 85 0 85 95 0 c88 0 98 -2 120 -25z"/>
<path d="M12530 1105 l0 -245 30 0 30 0 2 203 3 202 65 -200 66 -200 31 -3 31
-3 62 188 c34 103 66 192 71 197 5 6 9 -74 9 -187 l0 -197 30 0 30 0 0 245 0
245 -44 0 -45 0 -67 -205 c-38 -112 -71 -201 -74 -197 -4 4 -35 96 -70 205
l-64 197 -48 0 -48 0 0 -245z"/>
<path d="M24020 1105 l0 -245 150 0 150 0 0 30 0 30 -120 0 -120 0 0 215 0
215 -30 0 -30 0 0 -245z"/>
<path d="M26548 1117 c-49 -128 -88 -238 -88 -245 0 -7 13 -12 29 -12 27 0 31
5 56 75 l28 76 100 -3 99 -3 28 -70 c26 -66 30 -70 59 -70 17 0 31 4 32 8 0 4
-41 113 -93 242 l-93 235 -35 0 -35 0 -87 -233z m132 151 c0 -7 16 -55 35
-107 19 -51 35 -95 35 -97 0 -2 -36 -4 -79 -4 l-79 0 37 110 c32 98 51 133 51
98z"/>
<path d="M27087 1316 c-15 -18 -47 -47 -72 -62 -35 -23 -45 -35 -45 -56 0 -16
3 -28 8 -28 4 0 31 15 60 34 l52 35 0 -190 0 -189 30 0 30 0 0 245 c0 233 -1
245 -19 245 -10 0 -30 -15 -44 -34z"/>
<path d="M27390 1332 c-21 -10 -45 -34 -60 -62 -23 -41 -25 -55 -25 -170 0
-105 3 -131 20 -165 57 -113 196 -113 255 1 22 44 25 60 25 164 0 103 -3 120
-25 164 -41 79 -115 106 -190 68z m101 -42 c40 -22 53 -68 54 -190 0 -92 -4
-122 -18 -148 -34 -63 -98 -67 -140 -10 -16 22 -22 47 -25 118 -6 124 3 177
38 212 30 29 58 35 91 18z"/>
<path d="M27760 1332 c-24 -12 -43 -33 -60 -67 -23 -45 -25 -62 -25 -170 0
-105 3 -125 23 -163 59 -111 194 -110 252 3 22 44 25 61 25 165 0 104 -3 121
-25 164 -41 79 -115 106 -190 68z m113 -52 c34 -27 51 -108 45 -215 -5 -91
-21 -133 -60 -154 -34 -19 -73 -7 -101 31 -25 34 -36 190 -17 267 20 83 78
114 133 71z"/>
<path d="M28200 1320 l0 -30 80 0 80 0 0 -215 0 -215 30 0 30 0 0 215 0 215
80 0 80 0 0 30 0 30 -190 0 -190 0 0 -30z"/>
<path d="M30240 1105 l0 -245 30 0 30 0 0 110 0 110 62 0 c58 0 63 -2 97 -38
20 -21 56 -70 80 -110 40 -67 46 -72 77 -72 19 0 34 5 34 11 0 20 -94 160
-127 189 l-31 28 28 6 c16 3 43 18 61 34 66 59 43 180 -41 209 -20 7 -92 12
-167 12 l-133 1 0 -245z m286 172 c35 -30 37 -79 5 -110 -19 -19 -34 -22 -126
-25 l-105 -4 0 81 0 81 99 0 c90 0 103 -2 127 -23z"/>
<path d="M30670 1320 l0 -30 80 0 80 0 0 -215 0 -215 30 0 30 0 0 215 0 215
80 0 80 0 0 30 0 30 -190 0 -190 0 0 -30z"/>
<path d="M31290 1105 l0 -245 30 0 30 0 0 110 0 110 115 0 115 0 0 30 0 30
-115 0 -115 0 0 75 0 75 130 0 130 0 0 30 0 30 -160 0 -160 0 0 -245z"/>
<path d="M31692 1108 l3 -243 30 0 30 0 3 96 3 97 103 4 c121 4 148 17 178 85
34 77 9 149 -63 185 -27 14 -60 18 -162 18 l-127 0 2 -242z m273 157 c25 -24
32 -65 19 -100 -12 -30 -60 -45 -144 -45 l-80 0 0 85 0 85 90 0 c83 0 93 -2
115 -25z"/>
<path d="M32277 1321 c-10 -17 -40 -44 -67 -62 -41 -26 -50 -38 -50 -61 l0
-29 33 17 c17 9 44 25 60 36 l27 19 0 -190 0 -191 30 0 30 0 0 245 0 245 -23
0 c-15 0 -29 -11 -40 -29z"/>
<path d="M32584 1331 c-34 -15 -47 -30 -70 -77 -27 -54 -29 -68 -28 -164 0
-73 6 -116 16 -140 64 -140 245 -130 288 17 43 143 -103 257 -221 172 l-32
-22 8 49 c4 27 13 61 21 76 38 74 125 78 154 8 10 -24 18 -30 42 -30 26 0 29
3 22 23 -15 48 -35 75 -68 91 -44 21 -81 20 -132 -3z m108 -222 c52 -28 59
-135 11 -183 -79 -79 -192 40 -138 144 8 16 23 34 32 39 24 14 69 14 95 0z"/>
<path d="M34350 1315 c0 -32 2 -35 30 -35 28 0 30 3 30 35 0 32 -2 35 -30 35
-28 0 -30 -3 -30 -35z"/>
<path d="M11043 1323 c-18 -12 -23 -25 -23 -59 0 -40 -2 -44 -25 -44 -20 0
-25 -5 -25 -25 0 -20 5 -25 25 -25 l25 0 0 -139 c0 -133 1 -141 22 -155 12 -9
40 -16 61 -16 36 0 38 2 35 27 -2 19 -10 29 -28 33 -25 6 -25 7 -28 128 l-3
122 26 0 c20 0 25 5 25 25 0 20 -5 25 -25 25 -24 0 -25 3 -25 54 0 30 -3 57
-7 59 -5 3 -18 -2 -30 -10z"/>
<path d="M24788 1322 c-24 -14 -28 -23 -28 -59 0 -36 -3 -43 -20 -43 -15 0
-20 -7 -20 -25 0 -18 5 -25 19 -25 18 0 19 -10 23 -136 3 -129 4 -137 27 -155
25 -20 86 -26 96 -9 10 17 -5 50 -24 50 -35 0 -41 21 -41 137 l0 113 30 0 c25
0 30 4 30 25 0 21 -5 25 -30 25 -29 0 -29 1 -32 59 l-3 60 -27 -17z"/>
<path d="M9193 1209 c-32 -9 -83 -60 -83 -84 0 -7 11 -15 25 -18 21 -3 29 1
40 24 34 65 165 44 165 -27 0 -13 -1 -24 -2 -24 -23 0 -173 -32 -187 -40 -46
-24 -66 -94 -41 -141 27 -49 118 -63 185 -29 47 24 55 25 55 5 0 -10 10 -15
28 -15 l27 0 -3 137 c-2 77 -9 149 -15 163 -24 50 -112 73 -194 49z m147 -204
c0 -60 -47 -105 -108 -105 -58 0 -95 59 -57 90 15 12 108 37 148 39 12 1 17
-6 17 -24z"/>
<path d="M9566 1195 c-25 -26 -26 -27 -26 -6 0 16 -6 21 -25 21 l-25 0 0 -175
0 -175 30 0 30 0 0 124 c0 111 2 126 22 151 18 23 27 26 55 22 29 -5 34 -3 39
19 8 31 5 33 -39 41 -30 5 -40 1 -61 -22z"/>
<path d="M9787 1210 c-37 -11 -55 -27 -73 -63 -18 -33 -18 -32 19 -41 20 -5
27 -3 27 8 0 25 50 56 91 56 45 0 79 -27 79 -64 0 -21 -7 -26 -50 -35 -28 -6
-60 -11 -71 -11 -59 0 -119 -55 -119 -109 0 -57 53 -101 123 -101 18 0 55 11
80 24 43 23 45 24 50 5 4 -13 14 -19 36 -19 29 0 30 2 21 26 -6 14 -10 77 -10
139 0 120 -8 153 -42 174 -27 17 -124 23 -161 11z m143 -211 c0 -41 -15 -66
-50 -84 -40 -21 -86 -19 -110 5 -41 41 -16 77 66 95 91 20 94 19 94 -16z"/>
<path d="M10168 1196 c-36 -24 -38 -24 -38 -6 0 15 -7 20 -25 20 l-25 0 0
-175 0 -175 30 0 30 0 0 120 c0 66 5 130 11 143 20 43 84 61 113 31 13 -12 16
-41 16 -155 l0 -139 29 0 29 0 3 131 c4 129 4 131 32 155 34 29 70 31 97 4 18
-18 20 -33 20 -155 l0 -135 30 0 30 0 0 136 c0 154 -11 194 -61 214 -40 17
-98 6 -127 -24 l-25 -24 -21 25 c-33 38 -100 42 -148 9z"/>
<path d="M10715 1206 c-37 -16 -70 -52 -84 -89 -18 -48 -13 -143 10 -188 48
-96 213 -104 269 -14 26 43 25 55 -6 55 -16 0 -37 -13 -58 -35 -37 -39 -69
-44 -115 -21 -28 15 -51 53 -51 86 0 19 8 20 125 20 l125 0 0 40 c0 115 -113
191 -215 146z m126 -65 c16 -16 29 -39 29 -50 0 -20 -5 -21 -95 -21 -101 0
-106 3 -81 49 31 56 102 67 147 22z"/>
<path d="M11261 1198 c-60 -31 -86 -81 -86 -168 0 -108 51 -170 147 -177 65
-5 112 17 145 66 41 60 -8 73 -61 16 -27 -28 -41 -35 -70 -35 -49 0 -96 44
-96 89 l0 31 126 0 127 0 -6 52 c-15 119 -123 180 -226 126z m118 -43 c23 -11
51 -57 51 -81 0 -2 -43 -4 -95 -4 -90 0 -95 1 -95 21 0 29 53 79 85 79 14 0
39 -7 54 -15z"/>
<path d="M11646 1199 c-21 -17 -26 -18 -26 -5 0 11 -9 16 -30 16 l-30 0 0
-175 0 -175 30 0 30 0 0 113 c0 145 15 182 74 182 31 0 40 4 47 22 16 43 -49
58 -95 22z"/>
<path d="M11835 1206 c-39 -17 -55 -37 -61 -78 -9 -52 29 -91 108 -113 106
-29 129 -54 88 -95 -29 -29 -94 -27 -125 5 -14 13 -25 29 -25 35 0 12 -47 14
-54 2 -3 -5 3 -24 12 -43 30 -61 121 -87 195 -55 43 18 67 46 73 88 9 53 -23
83 -126 117 -72 23 -86 31 -88 51 -5 31 21 50 69 50 29 0 43 -7 62 -29 18 -22
31 -28 46 -24 43 11 19 63 -39 87 -48 19 -94 20 -135 2z"/>
<path d="M24450 1204 c-64 -27 -92 -87 -45 -96 14 -3 25 -1 25 4 0 5 11 20 25
33 47 48 145 25 145 -34 0 -33 -6 -37 -86 -46 -102 -13 -149 -50 -148 -117 3
-87 101 -124 196 -75 45 23 48 23 53 6 4 -13 16 -19 37 -19 25 0 29 3 23 18
-5 9 -10 76 -13 147 -2 72 -9 138 -14 148 -23 43 -130 60 -198 31z m150 -208
c0 -51 -35 -87 -91 -93 -51 -6 -79 12 -79 51 0 32 21 47 88 61 83 19 82 19 82
-19z"/>
<path d="M25014 1206 c-65 -29 -100 -104 -91 -199 8 -90 58 -145 140 -154 58
-7 110 11 142 48 35 43 33 69 -5 69 -16 0 -30 -5 -30 -10 0 -6 -11 -22 -25
-35 -29 -29 -79 -33 -114 -9 -21 15 -51 70 -51 94 0 6 48 10 131 10 l132 0 -7
47 c-12 90 -63 143 -143 150 -28 2 -61 -3 -79 -11z m124 -61 c16 -14 32 -36
34 -50 l5 -25 -93 0 c-93 0 -94 0 -94 24 0 32 53 76 90 76 16 0 42 -11 58 -25z"/>
<path d="M25420 1209 c-13 -5 -33 -17 -42 -26 -17 -15 -18 -15 -18 5 0 17 -6
22 -25 22 l-25 0 0 -175 0 -175 30 0 30 0 0 126 c0 125 0 126 29 155 35 35 81
39 111 9 18 -18 20 -33 20 -155 l0 -135 31 0 30 0 -3 150 c-3 146 -4 150 -29
176 -30 30 -97 41 -139 23z"/>
<path d="M25754 1206 c-43 -19 -71 -58 -84 -118 -34 -162 84 -284 216 -222 47
23 99 114 65 114 -5 0 -16 3 -25 6 -10 4 -19 -5 -30 -29 -37 -89 -144 -69
-166 30 -22 94 23 183 91 183 29 0 71 -31 81 -60 3 -9 12 -11 31 -6 26 6 26 8
14 38 -7 17 -25 40 -39 51 -34 25 -113 32 -154 13z"/>
<path d="M25990 1207 c0 -8 27 -86 60 -173 33 -88 60 -166 60 -174 0 -8 -9
-30 -20 -47 -15 -26 -26 -33 -51 -33 -27 0 -30 -3 -27 -27 6 -55 90 -37 122
26 21 40 156 410 156 427 0 8 -10 14 -24 14 -26 0 -21 10 -86 -172 l-38 -107
-48 137 c-46 128 -51 137 -77 140 -18 2 -27 -1 -27 -11z"/>
<path d="M28631 1198 c-60 -31 -86 -81 -86 -168 0 -108 51 -170 147 -177 65
-5 112 17 145 66 41 60 -8 73 -61 16 -27 -28 -41 -35 -70 -35 -49 0 -96 44
-96 89 l0 31 126 0 127 0 -6 52 c-15 119 -123 180 -226 126z m118 -43 c23 -11
51 -57 51 -81 0 -2 -43 -4 -95 -4 -90 0 -95 1 -95 21 0 29 53 79 85 79 14 0
39 -7 54 -15z"/>
<path d="M29027 1200 c-31 -17 -37 -17 -37 -5 0 10 -10 15 -30 15 l-30 0 0
-175 0 -175 29 0 29 0 4 131 c3 129 3 131 31 155 32 28 73 31 105 8 21 -14 22
-22 22 -155 l0 -139 30 0 30 0 0 140 c0 156 -7 182 -55 205 -44 20 -83 19
-128 -5z"/>
<path d="M29354 1206 c-57 -25 -77 -76 -53 -130 13 -27 50 -48 119 -66 87 -22
109 -51 70 -90 -29 -29 -94 -27 -125 5 -14 13 -25 29 -25 35 0 13 -47 13 -55
0 -11 -18 29 -74 65 -92 62 -32 151 -18 193 29 10 11 20 37 24 56 8 50 -32 88
-112 111 -93 26 -105 33 -105 60 0 53 85 64 129 17 20 -22 34 -28 50 -24 25 6
27 21 5 52 -33 46 -118 64 -180 37z"/>
<path d="M29704 1200 c-58 -29 -84 -80 -84 -164 0 -125 65 -194 173 -183 89 8
137 63 144 164 4 57 1 75 -19 112 -13 25 -35 54 -50 64 -40 29 -114 33 -164 7z
m125 -46 c88 -62 52 -254 -47 -254 -35 0 -77 25 -90 55 -16 34 -15 134 2 164
27 48 92 65 135 35z"/>
<path d="M30085 1194 c-24 -26 -25 -26 -25 -5 0 16 -6 21 -25 21 l-25 0 0
-175 0 -175 29 0 29 0 4 129 c3 112 6 132 23 151 15 17 27 21 51 17 26 -4 33
-1 42 19 10 20 8 25 -8 34 -33 18 -70 11 -95 -16z"/>
<path d="M33366 1195 c-34 -23 -36 -23 -36 -5 0 15 -7 20 -25 20 l-25 0 0
-175 0 -175 29 0 29 0 4 136 c3 129 4 137 27 155 29 24 73 24 94 1 14 -15 17
-42 17 -155 l0 -137 29 0 29 0 4 131 c3 129 3 131 31 155 32 27 64 31 93 10
17 -13 19 -29 22 -155 l4 -141 30 0 30 0 -4 144 c-3 127 -5 148 -24 172 -39
52 -117 56 -168 9 -22 -20 -28 -22 -33 -9 -8 20 -56 44 -91 44 -16 0 -46 -11
-66 -25z"/>
<path d="M33884 1206 c-40 -18 -64 -52 -64 -91 0 -52 24 -72 115 -100 98 -30
116 -49 84 -89 -16 -20 -29 -26 -58 -26 -41 0 -91 31 -91 56 0 11 -8 14 -27
12 -23 -2 -28 -7 -25 -27 11 -98 200 -124 258 -36 24 37 23 90 -2 116 -11 11
-58 32 -105 47 -72 23 -84 31 -87 52 -8 55 81 70 127 21 20 -22 34 -28 50 -24
25 6 27 21 5 52 -33 46 -118 64 -180 37z"/>
<path d="M34588 1196 c-36 -24 -38 -24 -38 -6 0 15 -7 20 -25 20 l-25 0 0
-175 0 -175 30 0 30 0 0 121 c0 148 17 188 81 189 51 0 59 -23 59 -173 l0
-137 29 0 29 0 4 131 c3 129 3 131 31 155 34 29 70 31 97 4 18 -18 20 -33 20
-155 l0 -135 31 0 31 0 -4 149 c-3 141 -4 151 -27 175 -42 45 -120 46 -162 2
l-22 -23 -22 24 c-32 38 -99 42 -147 9z"/>
<path d="M35110 1197 c-53 -35 -75 -81 -75 -157 0 -76 22 -122 75 -157 41 -28
84 -29 134 -2 l38 20 -7 -43 c-9 -57 -43 -88 -97 -88 -32 0 -46 6 -68 30 -15
17 -37 30 -49 30 -25 0 -25 -1 -7 -44 37 -90 208 -87 261 4 18 31 20 56 24
228 l3 192 -31 0 c-21 0 -31 -5 -31 -15 0 -12 -6 -11 -32 5 -44 26 -97 25
-138 -3z m125 -43 c63 -41 60 -196 -6 -229 -41 -22 -65 -18 -101 14 -31 28
-33 33 -33 101 0 68 2 73 33 101 36 32 71 37 107 13z"/>
<path d="M34350 1035 l0 -175 30 0 30 0 0 175 0 175 -30 0 -30 0 0 -175z"/>
</g>
</svg>
