<svg width="645" height="1298" viewBox="0 0 645 1298" fill="none" xmlns="http://www.w3.org/2000/svg">
<rect width="644.275" height="1298" fill="white"/>
<rect width="644.275" height="75.595" transform="translate(0 303)" fill="white"/>
<path d="M222.957 606V535.297H269.539V547.406H237.605V564.594H266.512V576.703H237.605V606H222.957Z" fill="#31D7C3"/>
<path d="M312.898 583.441V552.973H327.352V606H313.484V596.43H312.898C310.506 602.582 304.793 606.684 296.785 606.684C286.189 606.684 278.914 599.164 278.914 586.762V552.973H293.367V584.223C293.367 590.521 296.98 594.428 302.645 594.477C307.918 594.428 312.898 590.668 312.898 583.441ZM353.035 575.336V606H338.582V552.973H352.352V562.25H352.938C355.33 556.146 360.994 552.289 368.855 552.289C379.939 552.289 387.166 559.857 387.117 572.211V606H372.762V574.75C372.713 568.207 369.197 564.301 363.191 564.301C357.186 564.301 353.035 568.354 353.035 575.336ZM398.348 606V552.973H412.801V606H398.348ZM397.664 538.715C397.664 534.613 401.229 531.342 405.574 531.293C409.871 531.342 413.436 534.613 413.387 538.715C413.436 542.719 409.871 546.039 405.574 546.039C401.229 546.039 397.664 542.719 397.664 538.715ZM320.32 718.441V687.973H334.773V741H320.906V731.43H320.32C317.928 737.582 312.215 741.684 304.207 741.684C293.611 741.684 286.336 734.164 286.336 721.762V687.973H300.789V719.223C300.789 725.521 304.402 729.428 310.066 729.477C315.34 729.428 320.32 725.668 320.32 718.441ZM360.457 710.336V741H346.004V687.973H359.773V697.25H360.359C362.752 691.146 368.416 687.289 376.277 687.289C387.361 687.289 394.588 694.857 394.539 707.211V741H380.184V709.75C380.135 703.207 376.619 699.301 370.613 699.301C364.607 699.301 360.457 703.354 360.457 710.336ZM405.77 741V687.973H420.223V741H405.77ZM405.086 673.715C405.086 669.613 408.65 666.342 412.996 666.293C417.293 666.342 420.857 669.613 420.809 673.715C420.857 677.719 417.293 681.039 412.996 681.039C408.65 681.039 405.086 677.719 405.086 673.715Z" fill="#212124"/>
<path d="M222.957 741V670.297H251.082C266.658 670.297 274.568 677.816 274.52 688.461C274.568 696.762 269.1 701.986 261.824 703.598V704.281C269.783 704.672 277.303 711.02 277.352 721.469C277.303 732.699 268.904 741 252.938 741H222.957ZM237.605 728.891H250.008C258.504 728.939 262.166 725.424 262.117 720.102C262.166 714.145 257.625 709.945 250.398 709.945H237.605V728.891ZM237.605 699.887H248.934C255.086 699.936 259.725 696.469 259.676 690.805C259.725 685.678 255.916 682.211 249.227 682.211H237.605V699.887Z" fill="#BAB9D0"/>
<rect width="644.275" height="75.595" transform="translate(0 1189)" fill="white"/>
<path d="M280.144 1219.52C280.129 1224.56 282.424 1229.62 287.09 1231.6L284.825 1234.68C281.684 1233.26 279.51 1230.51 278.257 1227.11C277.018 1230.83 274.768 1233.82 271.416 1235.34L269.091 1232.14C273.893 1230.12 276.233 1224.85 276.248 1219.52V1215.41H280.144V1219.52ZM288.57 1240.84V1213.3H292.466V1240.84H288.57ZM311.794 1214.9V1217.98H306.328C306.343 1221.19 308.276 1224.5 312.73 1225.92L310.767 1228.91C307.717 1227.91 305.618 1225.95 304.425 1223.5C303.202 1226.18 300.997 1228.32 297.811 1229.36L295.758 1226.4C300.303 1224.94 302.387 1221.4 302.432 1217.98H296.815V1214.9H311.794ZM299.472 1234.1V1231.05H317.985V1240.78H314.119V1234.1H299.472ZM314.119 1229.88V1213.3H317.985V1219.97H321.7V1223.17H317.985V1229.88H314.119ZM344.592 1213.3V1224.05H348.639V1227.22H344.592V1240.78H340.786V1213.3H344.592ZM322.757 1220.48V1217.4H328.978V1213.72H332.844V1217.4H338.914V1220.48H322.757ZM323.874 1228.58C323.859 1224.74 326.849 1222.01 330.911 1222.02C334.912 1222.01 337.917 1224.74 337.917 1228.58C337.917 1232.41 334.912 1235.12 330.911 1235.13C326.849 1235.12 323.859 1232.41 323.874 1228.58ZM327.559 1228.58C327.559 1230.71 328.963 1231.98 330.911 1231.96C332.829 1231.98 334.233 1230.71 334.233 1228.58C334.233 1226.46 332.829 1225.16 330.911 1225.13C328.963 1225.16 327.559 1226.46 327.559 1228.58ZM372.738 1213.3V1240.78H368.843V1213.3H372.738ZM349.726 1232.99C356.823 1229.63 359.949 1225.29 360.568 1219.19H351.206V1216.17H364.494C364.479 1224.5 361.564 1231.43 351.749 1236.07L349.726 1232.99Z" fill="#212124"/>
<rect x="28.9893" y="1190.5" width="586.297" height="73" stroke="black" stroke-width="3"/>
</svg>
